
<svg width="181" height="165" viewBox="0 0 181 165" fill="none" xmlns="http://www.w3.org/2000/svg">
<path d="M172.675 34.475L171.601 32.703C162.515 17.7333 146.094 8.71239 128.785 9.80675C126.557 9.94529 124.342 10.2507 122.159 10.7204C106.416 14.0888 92.7217 25.9912 87.0189 41.237C83.6806 50.2027 82.7469 60.5238 76.4117 67.6422C68.1638 76.8991 54.1681 77.1802 41.859 76.8087C29.55 76.4372 15.5392 76.7535 7.33647 86.0505C2.22109 91.8737 0.589591 100.157 1.00123 107.978C2.10061 128.625 16.4879 147.089 34.7808 156.265C53.0737 165.442 74.6246 166.235 94.6493 162.194C122.701 156.541 149.367 141.009 165.431 117.014C181.495 93.0183 185.506 60.3632 172.675 34.475Z" fill="#E0E1E3"/>
<path d="M56.2917 45.4021C58.5952 37.0845 53.7199 28.4744 45.4023 26.1708C37.0847 23.8673 28.4745 28.7426 26.1709 37.0602C23.8674 45.3778 28.7428 53.988 37.0604 56.2916C45.378 58.5951 53.9881 53.7197 56.2917 45.4021Z" fill="#E0E1E3"/>
<mask id="mask0_91_8679" style="mask-type:alpha" maskUnits="userSpaceOnUse" x="-24" y="-33" width="230" height="198">
<path d="M195.32 -1.41018L193.949 -3.67125C182.355 -22.7719 161.403 -34.2822 139.318 -32.8858C136.474 -32.7091 133.648 -32.3194 130.863 -31.7201C110.776 -27.4221 57.5513 -34.8668 50.2749 -15.4139C46.0153 -3.97398 46.8747 25.2657 38.7912 34.3485C28.2673 46.1598 44.1095 53.0797 28.4037 52.6057C12.6979 52.1317 -5.1793 52.5353 -15.6456 64.3979C-22.1726 71.828 -24.2543 82.3968 -23.7291 92.3763C-22.3263 118.721 -3.9687 142.28 19.3722 153.989C42.7132 165.698 70.2111 166.71 95.7619 161.554C131.555 154.341 165.58 134.523 186.077 103.906C206.574 73.2885 211.691 31.622 195.32 -1.41018Z" fill="#E0E1E3"/>
</mask>
<g mask="url(#mask0_91_8679)">
<path d="M113.584 135.432C113.584 136.399 109.74 266.196 109.74 266.196L90.9216 266.907L86.0408 149.901C86.0408 149.901 81.2752 209.964 81.2752 211.258C81.2752 212.552 75.9204 267.362 75.9204 267.362L58.3442 266.58L59.6253 142.958L61.912 125.228L111.829 125.734L113.584 135.432Z" fill="#263238"/>
<path d="M83.9531 145.654C84.2111 145.801 84.4866 145.915 84.773 145.993C85.3046 146.192 86.0541 146.461 87.0469 146.788L87.2326 146.852V146.659C87.3479 145.045 87.4696 142.88 87.5913 140.517C87.7194 137.955 87.8155 135.623 87.8604 133.939C87.8604 133.099 87.8988 132.421 87.8988 131.947C87.923 131.702 87.9079 131.456 87.854 131.216C87.784 131.451 87.7452 131.695 87.7387 131.94C87.6938 132.408 87.6362 133.087 87.5785 133.926C87.4568 135.61 87.3223 137.929 87.1942 140.498C87.0725 142.868 86.9828 145.026 86.938 146.647L87.1301 146.519C86.1565 146.224 85.3623 145.993 84.8114 145.846C84.5355 145.743 84.2467 145.678 83.9531 145.654Z" fill="#455A64"/>
<path d="M85.4838 131.685C85.4838 131.685 85.4198 131.582 85.2148 131.512C84.9191 131.423 84.6006 131.45 84.3244 131.589C84.1179 131.685 83.9457 131.842 83.8312 132.039C83.7167 132.236 83.6653 132.463 83.6839 132.69C83.711 132.977 83.8296 133.248 84.0222 133.462C84.2148 133.677 84.4712 133.824 84.7536 133.882C85.04 133.927 85.3335 133.888 85.5977 133.769C85.8619 133.649 86.0851 133.454 86.2396 133.209C86.3616 133.018 86.4265 132.795 86.4265 132.569C86.4265 132.342 86.3616 132.119 86.2396 131.928C86.0933 131.677 85.8682 131.481 85.5991 131.371C85.4005 131.3 85.2788 131.307 85.2788 131.332C85.2788 131.358 85.7336 131.486 86.0154 132.05C86.0952 132.202 86.1325 132.372 86.1235 132.544C86.1145 132.715 86.0595 132.881 85.9642 133.023C85.8456 133.197 85.6807 133.334 85.4883 133.419C85.2959 133.504 85.0835 133.533 84.8753 133.504C84.6733 133.458 84.4898 133.352 84.3492 133.2C84.2086 133.048 84.1173 132.857 84.0874 132.652C84.0692 132.485 84.1016 132.316 84.1804 132.168C84.2592 132.019 84.3808 131.898 84.5294 131.819C84.8258 131.676 85.1594 131.629 85.4838 131.685Z" fill="#455A64"/>
<path d="M76.2279 133.061C76.3368 133.061 76.4905 132.491 76.5674 131.78C76.6443 131.069 76.6186 130.454 76.5097 130.442C76.4009 130.429 76.2471 131.018 76.1703 131.723C76.0934 132.427 76.1126 133.055 76.2279 133.061Z" fill="#455A64"/>
<path d="M74.8251 132.927C74.9339 132.927 75.03 132.286 75.03 131.543C75.03 130.8 74.9532 130.16 74.8379 130.16C74.7226 130.16 74.6393 130.8 74.6329 131.543C74.6265 132.286 74.7162 132.927 74.8251 132.927Z" fill="#455A64"/>
<path d="M99.1401 133.856C99.3918 133.376 99.5215 132.842 99.518 132.3C99.6477 131.774 99.6477 131.224 99.518 130.698C99.266 131.178 99.1342 131.712 99.1337 132.255C99.0078 132.781 99.01 133.33 99.1401 133.856Z" fill="#455A64"/>
<path d="M97.4425 133.99C97.545 134.029 97.8973 133.318 97.9357 132.357C97.9742 131.396 97.6859 130.659 97.5834 130.691C97.5167 131.24 97.5017 131.793 97.5386 132.344C97.4532 132.888 97.421 133.44 97.4425 133.99Z" fill="#455A64"/>
<path d="M103.822 132.191C103.812 132.39 103.836 132.589 103.893 132.78C103.986 133.315 104.121 133.842 104.296 134.356C104.862 136.076 105.706 137.692 106.794 139.14C107.897 140.621 109.226 141.918 110.734 142.984C111.192 143.31 111.671 143.605 112.168 143.867C112.345 143.976 112.534 144.062 112.732 144.124C112.764 144.066 112.002 143.637 110.887 142.798C109.451 141.696 108.173 140.403 107.089 138.955C106.018 137.529 105.156 135.959 104.527 134.292C104.066 133.004 103.886 132.178 103.822 132.191Z" fill="#455A64"/>
<path d="M60.2146 141.241C60.4109 141.305 60.6164 141.338 60.8231 141.337C61.3866 141.375 61.9525 141.365 62.5141 141.305C64.3691 141.108 66.1446 140.447 67.6768 139.383C69.1708 138.335 70.3599 136.91 71.1228 135.252C71.3478 134.762 71.5237 134.252 71.6481 133.727C71.7155 133.541 71.7438 133.342 71.7313 133.145C71.6673 133.145 71.5008 133.952 70.8922 135.149C70.0885 136.729 68.9124 138.09 67.4654 139.114C65.9728 140.127 64.2681 140.784 62.4821 141.036C61.0921 141.266 60.2146 141.177 60.2146 141.241Z" fill="#455A64"/>
<path d="M106.327 15.4918C105.719 14.1454 104.848 12.9344 103.765 11.9305C103.216 11.4348 102.567 11.0637 101.861 10.8425C101.156 10.6214 100.411 10.5555 99.6779 10.6494C98.9531 10.7632 98.2849 11.1097 97.7742 11.6366C97.2635 12.1635 96.938 12.8421 96.8468 13.5702L95.7899 13.9673C97.9165 15.1267 99.1911 17.3878 100.133 19.6168C101.074 21.8459 101.138 23.9981 102.695 25.8812C103.797 24.3439 105.116 22.6786 105.18 20.8146C105.836 21.9254 106.063 23.2373 105.821 24.5041C106.458 23.9777 106.963 23.3098 107.297 22.5537C107.63 21.7975 107.783 20.9739 107.742 20.1485C107.618 18.5112 107.134 16.9214 106.327 15.4918Z" fill="#263238"/>
<path d="M98.2112 11.7773C97.071 6.77472 90.6273 6.17903 86.5151 6.34556C82.4029 6.5121 78.5661 8.67069 75.735 11.5979C72.9038 14.5251 70.9758 18.1633 69.3873 21.8976L72.3722 22.2563C71.9492 22.2365 71.5314 22.357 71.1839 22.5991C70.8364 22.8412 70.5786 23.1913 70.4506 23.595C70.2256 24.4102 70.2058 25.2684 70.393 26.0931C70.662 28.0906 71.0904 30.0633 71.674 31.9924C73.2561 37.027 76.3691 41.4466 79.4308 45.7766C80.1546 41.8309 79.3604 37.7892 78.4444 33.8884C78.1242 32.5048 77.8039 31.0252 78.2843 29.6929C78.8158 28.4988 79.7467 27.5272 80.9169 26.945C82.0506 26.3045 83.2868 25.8689 84.4206 25.222C85.6714 24.4991 86.7643 23.5325 87.6346 22.3794C88.5049 21.2263 89.1349 19.9103 89.4872 18.5092L98.2112 11.7773Z" fill="#263238"/>
<path d="M76.4716 25.9455L78.5918 55.8455C78.9569 60.9313 80.5134 68.323 88.5328 67.375C95.4249 66.0427 96.7188 59.3044 96.3793 54.5644C96.2128 52.3098 96.0847 50.433 96.0847 50.2024C96.0847 50.2024 103.643 48.9214 103.656 41.3759C103.656 37.7185 103.06 30.1794 102.439 23.3706C102.117 19.8418 100.477 16.5638 97.8467 14.1897C95.2162 11.8155 91.7878 10.5196 88.2446 10.56H87.5144C79.6359 11.1109 75.7094 18.099 76.4716 25.9455Z" fill="#FFBE9D"/>
<path d="M96.0845 50.2021C92.5866 50.2317 89.1538 49.2556 86.1947 47.3901C86.1947 47.3901 88.6607 52.8987 96.2062 52.1365L96.0845 50.2021Z" fill="#EB996E"/>
<path d="M89.8457 27.5209C89.7112 27.6874 88.7824 27.0597 87.5206 27.1302C86.2587 27.2006 85.3684 27.8988 85.2275 27.7707C85.0866 27.6426 85.2851 27.412 85.6694 27.0917C86.1885 26.6652 86.8305 26.416 87.5014 26.3807C88.159 26.3439 88.8108 26.5215 89.3589 26.8868C89.7688 27.175 89.9162 27.4504 89.8457 27.5209Z" fill="#263238"/>
<path d="M88.7634 30.5828C88.7687 30.8493 88.6701 31.1073 88.4883 31.3022C88.3065 31.4972 88.056 31.6136 87.7898 31.6269C87.6595 31.6382 87.5283 31.6234 87.4038 31.5832C87.2793 31.5431 87.1642 31.4784 87.0651 31.3931C86.966 31.3077 86.885 31.2034 86.8268 31.0862C86.7687 30.9691 86.7346 30.8415 86.7265 30.7109C86.7196 30.4446 86.8179 30.1864 87.0002 29.9921C87.1825 29.7978 87.434 29.6833 87.7001 29.6733C87.8301 29.661 87.9612 29.675 88.0856 29.7144C88.2101 29.7538 88.3253 29.8179 88.4245 29.9027C88.5237 29.9876 88.6048 30.0915 88.6631 30.2083C88.7213 30.3252 88.7554 30.4525 88.7634 30.5828Z" fill="#263238"/>
<path d="M93.7271 36.0213C94.3377 35.8247 94.9702 35.7042 95.6103 35.6626C95.9114 35.6242 96.1868 35.5666 96.2508 35.3616C96.275 35.0549 96.2034 34.7483 96.0459 34.4841L95.1427 32.2294C93.8616 29.0267 92.9777 26.3814 93.1058 26.3365C93.2339 26.2917 94.3869 28.8474 95.6103 32.05L96.475 34.3175C96.6652 34.6747 96.7241 35.0872 96.6415 35.4833C96.5992 35.5879 96.5341 35.6819 96.4511 35.7583C96.368 35.8347 96.269 35.8918 96.1612 35.9253C95.994 35.9696 95.8216 35.9911 95.6487 35.9893C95.012 36.0798 94.3665 36.0906 93.7271 36.0213Z" fill="#263238"/>
<path d="M88.9166 22.8322C88.8141 23.1204 87.7893 22.9987 86.5915 23.1589C85.3937 23.319 84.4137 23.6713 84.2535 23.4151C84.1831 23.2934 84.3496 23.018 84.7403 22.7361C85.255 22.3877 85.8448 22.1661 86.4616 22.0893C87.0783 22.0125 87.7045 22.0827 88.2889 22.2942C88.7308 22.4735 88.955 22.6977 88.9166 22.8322Z" fill="#263238"/>
<path d="M101.068 24.1649C100.959 24.4083 99.9532 24.2354 98.7618 24.2995C97.5704 24.3635 96.5904 24.5941 96.4431 24.3699C96.3791 24.261 96.5584 24.0368 96.9619 23.8255C97.5009 23.552 98.0937 23.4011 98.6978 23.3835C99.307 23.3541 99.9157 23.4523 100.485 23.6717C100.914 23.8511 101.119 24.0561 101.068 24.1649Z" fill="#263238"/>
<path d="M77.144 31.5435C77.0159 31.4922 71.9301 30.0638 72.1479 35.2329C72.3657 40.402 77.5156 39.1209 77.522 38.9736C77.5284 38.8263 77.144 31.5435 77.144 31.5435Z" fill="#FFBE9D"/>
<path d="M75.8566 37.0779C75.8566 37.0779 75.7669 37.1484 75.6196 37.2253C75.4176 37.3143 75.1903 37.328 74.9791 37.2637C74.4218 37.0908 73.9286 36.2389 73.8646 35.3421C73.8328 34.9061 73.8984 34.4685 74.0567 34.061C74.0992 33.8986 74.1793 33.7484 74.2906 33.6227C74.4019 33.4969 74.5412 33.3992 74.6973 33.3373C74.799 33.307 74.9082 33.3127 75.0062 33.3536C75.1042 33.3944 75.1851 33.4678 75.2353 33.5614C75.3122 33.7024 75.2865 33.8112 75.3122 33.8176C75.3378 33.8241 75.4211 33.728 75.3698 33.5166C75.332 33.3899 75.2559 33.2781 75.152 33.1963C75.0035 33.0965 74.8224 33.0576 74.646 33.0874C74.4363 33.1407 74.2435 33.2461 74.0856 33.3939C73.9277 33.5418 73.8098 33.7272 73.7429 33.9329C73.5371 34.3885 73.4489 34.8885 73.4867 35.3869C73.5635 36.4246 74.1272 37.379 74.8958 37.5647C75.0368 37.5983 75.1834 37.6002 75.3252 37.5703C75.4669 37.5404 75.6003 37.4794 75.7157 37.3918C75.8502 37.2061 75.8758 37.0908 75.8566 37.0779Z" fill="#EB996E"/>
<path d="M101.369 27.0217C101.228 27.1818 100.305 26.5605 99.0437 26.631C97.7818 26.7014 96.8915 27.3996 96.7442 27.2715C96.5968 27.1434 96.8082 26.9128 97.1925 26.5925C97.7142 26.1776 98.3524 25.9358 99.018 25.9008C99.6784 25.8658 100.332 26.0456 100.882 26.4132C101.286 26.6886 101.414 26.964 101.369 27.0217Z" fill="#263238"/>
<path d="M99.5755 30.5828C99.5775 30.8494 99.4769 31.1066 99.2944 31.301C99.112 31.4954 98.8617 31.6121 98.5955 31.6269C98.4653 31.6374 98.3344 31.6219 98.2103 31.5814C98.0862 31.5409 97.9714 31.4762 97.8725 31.391C97.7736 31.3058 97.6926 31.2018 97.6342 31.0851C97.5757 30.9683 97.5411 30.8412 97.5322 30.7109C97.5269 30.4451 97.6258 30.1878 97.8077 29.9939C97.9896 29.8 98.2402 29.6849 98.5058 29.6733C98.6361 29.661 98.7675 29.6749 98.8923 29.7143C99.0172 29.7536 99.1328 29.8176 99.2325 29.9024C99.3322 29.9871 99.414 30.091 99.4729 30.2079C99.5318 30.3248 99.5666 30.4522 99.5755 30.5828Z" fill="#263238"/>
<path d="M98.4033 14.4227C99.2168 11.2649 96.6099 9.8237 93.8812 8.0174C92.498 7.14125 90.8818 6.70472 89.2456 6.76532C87.6093 6.82592 86.0298 7.38081 84.7152 8.35688C83.3573 9.40735 82.3837 10.8549 81.2051 12.0912C80.0265 13.3274 78.4636 14.3971 76.7598 14.3202C77.6647 15.1748 78.8089 15.7326 80.0394 15.9192C81.2699 16.1058 82.528 15.9122 83.6455 15.3643C81.7372 17.6874 79.1895 19.3999 76.3179 20.29C77.4355 20.9602 78.7529 21.217 80.0404 21.0157C81.3279 20.8143 82.504 20.1676 83.3637 19.1882C82.695 21.6399 81.4347 23.8899 79.6935 25.7409C79.3988 26.0547 79.0529 26.4519 79.2003 26.8554C79.3476 27.2589 79.8408 27.3998 80.2892 27.4191C81.5672 27.4661 82.8345 27.1695 83.9589 26.5599C85.0833 25.9504 86.0236 25.0504 86.6816 23.9538C88.0524 21.5838 88.9491 19.0665 90.1917 16.6325C90.7874 15.4732 92.6962 13.4299 94.2399 13.3786C95.521 13.3274 97.9742 13.7437 98.5763 14.8775" fill="#263238"/>
<path d="M86.6814 11.7319C86.5485 11.5618 86.381 11.4219 86.19 11.3214C85.9989 11.2209 85.7887 11.1621 85.5733 11.149C82.7165 10.6878 79.8534 12.43 78.2392 14.832C76.6251 17.234 76.0294 20.1612 75.6771 23.0308C75.3825 25.3559 75.2223 27.7835 76.0038 29.9934L76.8621 31.505C77.3717 32.202 77.7614 32.9792 78.015 33.8045C78.1816 34.4451 78.7068 35.1817 79.3858 35.0856C79.6289 35.0148 79.8482 34.879 80.0198 34.6927C80.1913 34.5065 80.3088 34.2769 80.3594 34.0287C80.7949 32.5619 80.1736 30.9286 80.6604 29.4874C80.9935 28.5138 81.7685 27.7835 82.3642 26.9252C83.3286 25.3836 84.0057 23.6801 84.3627 21.8971L86.6814 13.077C86.7702 12.8639 86.8159 12.6353 86.8159 12.4044C86.8159 12.1735 86.7702 11.945 86.6814 11.7319Z" fill="#263238"/>
<path d="M98.4033 14.4227C99.2168 11.2649 96.6099 9.8237 93.8812 8.0174C92.498 7.14125 90.8818 6.70472 89.2456 6.76532C87.6093 6.82592 86.0298 7.38081 84.7152 8.35688C83.3573 9.40735 82.3837 10.8549 81.2051 12.0912C80.0265 13.3274 78.4636 14.3971 76.7598 14.3202C77.6647 15.1748 78.8089 15.7326 80.0394 15.9192C81.2699 16.1058 82.528 15.9122 83.6455 15.3643C81.7372 17.6874 79.1895 19.3999 76.3179 20.29C77.4355 20.9602 78.7529 21.217 80.0404 21.0157C81.3279 20.8143 82.504 20.1676 83.3637 19.1882C82.695 21.6399 81.4347 23.8899 79.6935 25.7409C79.3988 26.0547 79.0529 26.4519 79.2003 26.8554C79.3476 27.2589 79.8408 27.3998 80.2892 27.4191C81.5672 27.4661 82.8345 27.1695 83.9589 26.5599C85.0833 25.9504 86.0236 25.0504 86.6816 23.9538C88.0524 21.5838 88.9491 19.0665 90.1917 16.6325C90.7874 15.4732 92.6962 13.4299 94.2399 13.3786C95.521 13.3274 97.9742 13.7437 98.5763 14.8775" fill="#263238"/>
<path d="M82.089 13.8139C82.089 13.8139 82.3452 13.7307 82.7744 13.5513C83.3791 13.2713 83.9383 12.9021 84.4333 12.456C85.0739 11.9116 85.7144 11.1749 86.5599 10.3551C86.988 9.93382 87.4605 9.56014 87.9691 9.24054C88.5247 8.89162 89.146 8.66052 89.7946 8.56158C91.0458 8.39076 92.3196 8.59823 93.452 9.15727C94.3624 9.60645 95.1932 10.2014 95.9116 10.9187C96.3964 11.3936 96.8459 11.9031 97.2568 12.4432C97.4237 12.6383 97.5657 12.8535 97.6795 13.0837C97.6283 13.1222 96.9941 12.2702 95.7579 11.1109C95.0378 10.4376 94.2192 9.87822 93.3303 9.45192C92.2453 8.93908 91.0355 8.75004 89.8458 8.90747C88.669 9.13993 87.5929 9.73057 86.7649 10.5985C85.9514 11.3607 85.2596 12.1229 84.5807 12.661C84.0613 13.0928 83.4721 13.4329 82.8384 13.6666C82.6017 13.7676 82.3464 13.8178 82.089 13.8139Z" fill="#455A64"/>
<path d="M85.9961 18.221C85.9641 18.221 86.4957 17.5804 87.1747 16.4019C87.5206 15.8318 87.9177 15.1208 88.4558 14.4034C88.9951 13.5835 89.6998 12.8854 90.5247 12.3537C91.3788 11.8445 92.349 11.5622 93.343 11.5338C94.1502 11.5145 94.952 11.6696 95.6938 11.9886C96.189 12.1991 96.6491 12.4843 97.0581 12.8341C97.3463 13.0839 97.4744 13.2505 97.4616 13.2697C96.8878 12.8395 96.2641 12.4803 95.6041 12.2C94.8066 11.8912 93.9488 11.7699 93.0969 11.8454C92.245 11.9209 91.4219 12.1913 90.6912 12.6355C89.8989 13.1373 89.2133 13.7902 88.6735 14.5571C88.1547 15.2681 87.7448 15.9471 87.3925 16.4787C87.1039 16.9253 86.7872 17.3532 86.4445 17.7598C86.1691 18.0993 86.041 18.2338 85.9961 18.221Z" fill="#455A64"/>
<path d="M103.592 17.5099C103.387 17.1601 103.207 16.7962 103.053 16.421C102.636 15.5542 102.05 14.7791 101.33 14.1407C100.605 13.5208 99.7147 13.1247 98.7683 13.0006C98.0381 12.9237 97.577 13.0454 97.5706 13.0006C97.9444 12.8053 98.3692 12.7292 98.7876 12.7828C99.806 12.8375 100.777 13.2296 101.548 13.8973C102.306 14.5618 102.896 15.3957 103.271 16.3313C103.455 16.6993 103.563 17.0998 103.592 17.5099Z" fill="#455A64"/>
<path d="M82.441 26.6438C82.441 26.6438 82.3705 26.6438 82.2232 26.7014C82.0119 26.7441 81.7978 26.7719 81.5827 26.7847C80.7445 26.84 79.9038 26.7268 79.1102 26.4516C78.5164 26.2905 77.9795 25.9666 77.5601 25.5164C77.4401 25.3714 77.3617 25.1964 77.3335 25.0102C77.3053 24.824 77.3283 24.6337 77.4 24.4596C77.5925 24.114 77.9117 23.8567 78.2903 23.7422C78.649 23.5948 79.0398 23.518 79.4049 23.3899C79.7887 23.2549 80.1614 23.09 80.5194 22.8967C81.2789 22.4749 81.9559 21.9194 82.5178 21.2569L82.6844 21.4619C81.9095 21.8794 81.0227 22.0423 80.15 21.9273C79.2774 21.8123 78.4631 21.4253 77.8227 20.8213L77.6754 20.674L77.8612 20.5843C79.2247 19.8935 80.4005 18.8825 81.288 17.6379L81.4802 17.8749C80.5328 18.2361 79.5069 18.341 78.506 18.179C77.5051 18.0171 76.5646 17.594 75.7795 16.9525L75.6001 16.7732L75.3951 16.6002L75.6513 16.5042C76.5026 16.1446 77.2494 15.5762 77.8227 14.8516C78.3867 14.1379 78.8983 13.3844 79.3536 12.5969C79.8054 11.8198 80.3287 11.0864 80.9165 10.4063C81.4895 9.76464 82.1343 9.19081 82.8381 8.6961C84.0491 7.83119 85.4217 7.21874 86.8742 6.89522C88.3267 6.5717 89.8295 6.54372 91.2931 6.81295C93.259 7.18112 95.0915 8.06537 96.6031 9.37507C97.1631 9.84744 97.6528 10.3975 98.0571 11.0084C97.5735 10.4739 97.058 9.96904 96.5134 9.49677C95.0006 8.23537 93.1865 7.3879 91.2483 7.03713C89.9162 6.79782 88.5504 6.8174 87.2257 7.09478C85.7046 7.41211 84.2654 8.04013 82.9982 8.93951C81.6037 9.95629 80.451 11.2686 79.6226 12.7827C79.1602 13.5838 78.64 14.3502 78.0662 15.0758C77.4655 15.8264 76.6827 16.4108 75.7923 16.7732L75.8435 16.5042L76.0165 16.6451C76.7557 17.2491 77.6407 17.6481 78.5828 17.8021C79.525 17.9561 80.491 17.8597 81.3841 17.5226L81.8837 17.324L81.5763 17.7596C80.6585 19.0466 79.4375 20.0872 78.0213 20.7893L78.0597 20.5523C78.6516 21.1168 79.4051 21.4821 80.2149 21.5969C81.0246 21.7118 81.85 21.5705 82.5755 21.1929L83.216 20.8277L82.7356 21.3978C82.1461 22.0902 81.4338 22.6678 80.6347 23.1016C80.2656 23.3014 79.8798 23.4686 79.4817 23.6012C79.091 23.7294 78.7131 23.8062 78.3736 23.9407C78.0449 24.0322 77.7633 24.2451 77.5858 24.5364C77.5261 24.6774 77.5066 24.8322 77.5292 24.9836C77.5518 25.135 77.6157 25.2773 77.7139 25.3947C78.1051 25.8235 78.6054 26.1379 79.1615 26.3043C79.9372 26.584 80.7583 26.7165 81.5827 26.695C82.1399 26.6886 82.441 26.6245 82.441 26.6438Z" fill="#455A64"/>
<path d="M94.4062 39.1921L90.6976 37.5459C90.3791 38.0265 90.1271 38.5479 89.9482 39.096C89.8635 39.3707 89.8369 39.6601 89.87 39.9456C89.9031 40.2312 89.9951 40.5068 90.1403 40.755C90.4809 41.1902 90.9489 41.5082 91.479 41.6645C91.9155 41.8718 92.4049 41.941 92.8818 41.8631C93.1451 41.7826 93.387 41.6441 93.5899 41.4579C93.7927 41.2717 93.9513 41.0425 94.054 40.787C94.2532 40.2765 94.3741 39.7387 94.4127 39.1921" fill="#EB996E"/>
<path d="M92.8818 41.8561C92.8818 41.8561 92.7473 41.9458 92.4719 41.9586C92.0805 41.9561 91.6933 41.8778 91.3318 41.728C90.7573 41.5601 90.2619 41.192 89.9354 40.6904C89.7758 40.3586 89.693 39.9952 89.693 39.6271C89.693 39.259 89.7758 38.8956 89.9354 38.5638C90.1073 38.1795 90.3086 37.809 90.5375 37.4557L90.6144 37.334L90.7361 37.3916C91.7993 37.872 92.7217 38.3076 93.3686 38.6279C93.7286 38.7692 94.0688 38.9565 94.3807 39.1851C94.0012 39.1053 93.6333 38.9783 93.2854 38.8072C92.6128 38.5382 91.6776 38.1667 90.6079 37.6799L90.8065 37.6158C90.5937 37.9598 90.4033 38.3171 90.2364 38.6855C90.091 38.9729 90.0099 39.2885 89.9988 39.6104C89.9877 39.9323 90.047 40.2528 90.1724 40.5494C90.4566 40.9992 90.886 41.3382 91.3894 41.5102C91.7227 41.6719 92.0793 41.78 92.4463 41.8305C92.7281 41.8625 92.8754 41.8305 92.8818 41.8561Z" fill="#263238"/>
<path d="M77.8931 53.4111C77.8931 53.4111 83.2544 59.272 97.282 54.5961L106.147 67.5733L114.986 139.191L85.3297 142.586L62.1105 139.306L69.5278 67.5669L77.8931 53.4111Z" fill="#E0E0E0"/>
<path d="M113.494 59.3359C113.494 59.3359 118.619 60.2071 121.514 66.132C124.409 72.0569 126.395 96.0832 126.395 96.0832L141.21 85.0853L148.813 87.974C148.813 87.974 136.483 114.55 128.316 116.49C121.559 118.092 117.767 118.835 114.109 113.089C110.452 107.344 107.8 66.132 107.8 66.132L113.494 59.3359Z" fill="#455A64"/>
<path d="M119.425 155.128C119.425 155.128 115.582 115.62 115.787 115.146C115.992 114.672 115.371 92.0225 115.787 91.6702C116.204 91.3179 113.494 59.3555 113.494 59.3555L99.4024 55.0063H99.5882L96.3855 51.5986C96.3855 51.5986 92.4527 64.659 92.5039 64.8704C93.6441 69.3541 97.7242 136.232 97.7242 136.232C97.7242 136.706 99.332 155.102 99.332 155.102L119.425 155.128Z" fill="#455A64"/>
<path d="M115.166 93.7198C115.017 93.8576 114.856 93.9819 114.686 94.0913L113.264 95.0905H113.232H113.187L105.712 91.4715L105.629 91.4331V91.3498C105.449 88.9222 105.244 86.168 105.02 83.26C104.828 80.5313 104.642 77.9371 104.476 75.612V75.4775H104.604C107.242 74.9321 109.967 74.9517 112.598 75.5352C113.344 75.6978 114.078 75.9118 114.795 76.1757C115.055 76.258 115.306 76.3675 115.544 76.5024C115.281 76.4413 115.022 76.3643 114.769 76.2718C114.043 76.0515 113.305 75.8719 112.559 75.7337C109.951 75.2204 107.267 75.2422 104.668 75.7978L104.789 75.6376C104.962 77.9628 105.161 80.5505 105.366 83.2792C105.571 86.1872 105.769 88.9415 105.942 91.3691L105.859 91.2474L113.27 94.9945H113.187L114.654 94.0593C114.811 93.9268 114.983 93.8129 115.166 93.7198Z" fill="#263238"/>
<path d="M115.39 70.6865C115.454 71.0007 115.488 71.3203 115.493 71.6409C115.537 72.2814 115.582 73.159 115.621 74.2607C115.698 76.4769 115.717 79.5386 115.698 82.9142C115.678 86.2898 115.665 89.3516 115.698 91.5614C115.698 92.6183 115.698 93.483 115.698 94.1812C115.717 94.5039 115.706 94.8276 115.666 95.1484C115.601 94.8321 115.567 94.5104 115.563 94.1876C115.518 93.547 115.473 92.6759 115.435 91.5678C115.358 89.3516 115.339 86.2898 115.358 82.9142C115.377 79.5386 115.39 76.5089 115.358 74.2671C115.358 73.2102 115.358 72.3455 115.358 71.6473C115.339 71.3268 115.349 71.0051 115.39 70.6865Z" fill="#263238"/>
<path d="M99.6008 55.0132C99.6172 55.3065 99.6022 55.6006 99.556 55.8907C99.5047 56.4544 99.4215 57.2679 99.3126 58.2735C99.082 60.2783 98.7361 63.0454 98.2557 66.088C98.0892 67.1833 97.9098 68.2401 97.7305 69.2201L97.6472 69.6877L97.4294 69.265C96.9449 68.3212 96.4104 67.4039 95.8281 66.5171C95.5655 66.1136 95.3093 65.7421 95.0659 65.3962C94.8587 65.0793 94.6111 64.7907 94.3293 64.5379C94.1112 64.338 93.8243 64.2301 93.5286 64.2368C93.3065 64.2589 93.0986 64.356 92.9393 64.5122C92.8077 64.6504 92.7343 64.8339 92.7343 65.0247C92.7343 65.0247 92.587 64.7813 92.856 64.4354C93.0219 64.2468 93.2485 64.1222 93.4966 64.0831C93.6662 64.0667 93.8375 64.0843 94.0003 64.1349C94.163 64.1855 94.3141 64.268 94.4446 64.3777C94.7531 64.6312 95.0248 64.9266 95.2516 65.2553C95.5078 65.5947 95.7769 65.9598 96.0459 66.3634C96.6496 67.2487 97.2014 68.1683 97.6985 69.1177L97.3974 69.1625L97.9098 66.0367C98.3902 62.9942 98.7681 60.2335 99.0628 58.2415C99.2037 57.2935 99.319 56.4992 99.4151 55.8779C99.4473 55.5841 99.5096 55.2943 99.6008 55.0132Z" fill="#263238"/>
<g opacity="0.3">
<path d="M97.4679 68.9887C97.2373 69.9367 97.0131 70.9103 96.7889 71.8327C96.11 69.941 95.4331 68.0493 94.7584 66.1576C94.6436 65.7799 94.4731 65.4216 94.2524 65.0943C93.8724 64.7296 93.3804 64.5039 92.8561 64.4538C93.1214 64.2397 93.4564 64.1311 93.7968 64.1488C94.1373 64.1666 94.4592 64.3094 94.7008 64.5498C95.5207 65.4145 97.4679 68.9887 97.4679 68.9887Z" fill="black"/>
</g>
<g opacity="0.3">
<path d="M115.684 93.9314C117.446 87.6093 117.081 79.6924 115.39 73.3447L115.684 93.9314Z" fill="black"/>
</g>
<path d="M115.422 79.302C114.903 79.2904 114.386 79.2304 113.879 79.1226C112.937 78.9881 111.63 78.8344 110.176 78.7511C108.722 78.6678 107.409 78.6806 106.455 78.7063C105.939 78.7565 105.42 78.7565 104.905 78.7063C105.405 78.5621 105.922 78.4804 106.442 78.4629C108.941 78.255 111.457 78.3951 113.917 78.8792C114.435 78.9558 114.94 79.0978 115.422 79.302Z" fill="#263238"/>
<path d="M116.037 125.516C115.812 125.445 115.597 125.346 115.396 125.221C114.993 125.016 114.423 124.696 113.731 124.293C111.921 123.221 110.168 122.055 108.479 120.802C106.789 119.551 105.166 118.213 103.617 116.792C103.021 116.248 102.554 115.793 102.24 115.472C102.065 115.315 101.908 115.139 101.772 114.947C101.977 115.064 102.164 115.208 102.329 115.376L103.771 116.619C104.994 117.657 106.711 119.072 108.684 120.533C110.656 121.993 112.527 123.223 113.853 124.088L115.46 125.112C115.67 125.221 115.864 125.356 116.037 125.516Z" fill="#263238"/>
<path opacity="0.3" d="M60.4194 113.692L59.5803 120.033C59.5803 120.033 89.4547 126.547 92.51 126.355C95.5653 126.163 97.5125 123.153 97.5125 123.153L97.9993 119.745C97.9993 119.745 115.934 120.757 116.709 118.643L88.5643 114.525L80.2759 116.055L60.4194 113.692Z" fill="black"/>
<path d="M95.9182 58.7086C97.7995 53.4166 101.066 48.7263 105.378 45.1271C109.689 41.5279 114.888 39.1516 120.431 38.2461C125.974 37.3405 131.658 37.939 136.891 39.979C142.124 42.0189 146.714 45.4257 150.181 49.8439C153.649 54.2621 155.867 59.5298 156.605 65.0975C157.343 70.6653 156.573 76.329 154.377 81.498C152.18 86.6669 148.636 91.1517 144.115 94.4845C139.595 97.8172 134.262 99.8758 128.675 100.446L126.03 107.921L100.075 98.7609C100.075 98.7609 101.401 94.5078 102.637 90.7479C98.6778 86.5428 95.9553 81.3266 94.7698 75.6736C93.5843 70.0207 93.9817 64.1502 95.9182 58.7086Z" fill="#FF725E"/>
<path d="M103.976 100.1C103.976 100.1 104.04 99.9845 104.155 99.7539L104.655 98.7163C105.09 97.8067 105.724 96.4552 106.519 94.7065C108.094 91.2028 110.298 86.0914 112.655 79.6349C113.244 78.0271 113.846 76.3297 114.442 74.549C114.743 73.6587 115.044 72.7556 115.345 71.8268C115.707 70.8917 115.923 69.9066 115.986 68.906C115.997 68.3799 115.881 67.859 115.646 67.3879C115.534 67.1395 115.372 66.9165 115.17 66.7326C114.969 66.5487 114.732 66.4077 114.474 66.3182C114.205 66.2501 113.924 66.2411 113.651 66.292C113.378 66.3428 113.119 66.4523 112.892 66.6129C112.427 66.9309 112.062 67.3754 111.842 67.8939C111.643 68.4145 111.566 68.9736 111.616 69.5286C111.665 70.0835 111.841 70.6198 112.13 71.0966C112.704 72.0933 113.575 72.8859 114.621 73.3641C115.692 73.8579 116.883 74.0271 118.048 73.8509C119.241 73.6519 120.352 73.1163 121.251 72.3072C122.167 71.4952 122.873 70.4732 123.307 69.3287C123.535 68.7479 123.665 68.1331 123.691 67.5096C123.741 66.8628 123.547 66.2208 123.147 65.7097C122.926 65.4588 122.633 65.2822 122.308 65.2037C121.988 65.1268 121.654 65.1268 121.334 65.2037C120.698 65.3548 120.129 65.7103 119.714 66.2158C119.302 66.7125 118.965 67.2671 118.714 67.8619C118.46 68.4479 118.235 69.0465 118.042 69.6554C117.623 70.8948 117.394 72.1906 117.363 73.4986C117.313 74.8285 117.635 76.1459 118.292 77.3033C118.628 77.8797 119.061 78.3933 119.573 78.8214C120.09 79.2448 120.697 79.5449 121.347 79.6989C121.999 79.8308 122.674 79.8044 123.313 79.622C123.944 79.4385 124.535 79.1387 125.056 78.7381C126.057 77.9415 126.922 76.9875 127.618 75.9134C127.976 75.3946 128.31 74.8629 128.63 74.3249C128.965 73.793 129.254 73.2337 129.495 72.6531C129.741 72.0616 129.799 71.4085 129.661 70.7827C129.588 70.4653 129.439 70.1706 129.226 69.9244C129.001 69.676 128.694 69.5187 128.361 69.4825C128.037 69.4515 127.711 69.5185 127.426 69.6746C127.151 69.8212 126.898 70.0067 126.676 70.2255C126.246 70.657 125.882 71.149 125.594 71.6859C124.363 73.7134 123.851 76.0959 124.14 78.4499C124.327 79.5788 124.798 80.6415 125.51 81.5372C126.195 82.4279 127.158 83.0638 128.246 83.3435C129.316 83.5815 130.438 83.4053 131.384 82.8503C132.311 82.3507 133.054 81.5673 133.504 80.6149C133.727 80.1511 133.857 79.6486 133.889 79.1352C133.935 78.6203 133.804 78.1051 133.517 77.6748C133.361 77.4624 133.137 77.3093 132.882 77.2407C132.627 77.172 132.356 77.1918 132.114 77.2969C131.672 77.5101 131.293 77.8373 131.019 78.2449C130.512 79.0209 130.102 79.8554 129.796 80.7302L128.796 83.1706C126.183 89.5246 124.165 94.7001 122.839 98.3063C122.199 100.106 121.68 101.509 121.353 102.476L120.988 103.565L120.873 103.943C120.873 103.943 120.924 103.815 121.014 103.571L121.398 102.489C121.738 101.541 122.244 100.132 122.923 98.3383C124.274 94.745 126.311 89.5759 128.944 83.2282C129.27 82.434 129.584 81.6269 129.956 80.7942C130.255 79.9344 130.66 79.1147 131.16 78.3538C131.415 77.9703 131.769 77.6627 132.185 77.4635C132.389 77.3739 132.618 77.3569 132.834 77.4151C133.049 77.4733 133.238 77.6034 133.37 77.7837C133.633 78.1803 133.75 78.6555 133.703 79.1288C133.671 79.6161 133.545 80.0925 133.331 80.5316C132.898 81.4492 132.182 82.2036 131.288 82.6838C130.383 83.2099 129.313 83.3768 128.29 83.1514C127.247 82.8789 126.325 82.2656 125.671 81.4091C124.982 80.5416 124.527 79.5116 124.351 78.4179C124.055 76.1068 124.549 73.7635 125.754 71.7691C126.033 71.2519 126.384 70.7774 126.798 70.36C126.986 70.1441 127.218 69.9712 127.479 69.8529C127.74 69.7347 128.023 69.6739 128.31 69.6746C128.59 69.7252 128.847 69.8614 129.047 70.0644C129.247 70.2675 129.378 70.5274 129.424 70.8084C129.551 71.3923 129.493 72.0014 129.258 72.5506C129.022 73.1177 128.739 73.6641 128.412 74.184C128.098 74.7156 127.772 75.2472 127.406 75.7597C126.722 76.8138 125.872 77.7504 124.889 78.5331C124.39 78.9135 123.826 79.2 123.224 79.3787C122.62 79.5554 121.982 79.5796 121.366 79.4491C120.75 79.2853 120.173 78.9982 119.671 78.6051C119.169 78.2121 118.752 77.7213 118.445 77.1624C117.806 76.0435 117.495 74.7669 117.549 73.4794C117.575 72.2034 117.791 70.9384 118.189 69.7259C118.52 68.5182 119.071 67.3823 119.816 66.3759C120.199 65.9051 120.725 65.5722 121.315 65.4279C121.596 65.3487 121.894 65.3474 122.176 65.4241C122.458 65.5008 122.714 65.6527 122.916 65.8635C123.279 66.3318 123.453 66.9193 123.403 67.5096C123.382 68.107 123.258 68.6963 123.038 69.2519C122.617 70.3632 121.933 71.3563 121.046 72.1471C120.184 72.9289 119.118 73.4488 117.971 73.6459C116.848 73.8217 115.697 73.659 114.666 73.1783C113.657 72.7216 112.817 71.9599 112.264 71.0005C111.985 70.5474 111.814 70.0362 111.764 69.5064C111.714 68.9767 111.787 68.4425 111.976 67.9452C112.187 67.4724 112.527 67.0684 112.956 66.7794C113.157 66.632 113.388 66.5309 113.633 66.4832C113.878 66.4356 114.13 66.4427 114.372 66.504C114.604 66.5865 114.818 66.7145 115.001 66.8806C115.183 67.0466 115.331 67.2474 115.435 67.4712C115.653 67.9172 115.761 68.4094 115.749 68.906C115.688 69.8882 115.472 70.8546 115.108 71.7691C114.807 72.6979 114.506 73.6075 114.218 74.4978C113.62 76.2699 113.027 77.9652 112.437 79.5836C110.106 86.0402 107.954 91.158 106.378 94.6681C105.596 96.4232 104.975 97.7811 104.552 98.697C104.341 99.1518 104.181 99.5041 104.066 99.7411L103.976 100.1Z" fill="white"/>
<path d="M111.297 128.226C110.432 128.44 109.602 128.777 108.831 129.225C108.566 129.39 108.267 129.492 107.956 129.525C107.645 129.557 107.331 129.518 107.038 129.41L101.273 127.354C100.953 127.242 100.666 127.053 100.436 126.804C100.206 126.555 100.04 126.254 99.9534 125.926C99.7605 125.03 99.2539 124.233 98.525 123.678L111.297 128.226Z" fill="#263238"/>
<path d="M123.301 114.294C123.256 114.41 118.702 122.986 116.959 126.266C116.615 126.935 116.108 127.507 115.487 127.931C114.865 128.355 114.147 128.617 113.398 128.693C112.797 128.751 112.191 128.674 111.624 128.469L98.9477 123.986C98.9477 123.986 95.6297 122.813 95.8155 119.918C96.0013 116.869 98.3776 105.461 98.3776 105.461L123.301 114.294Z" fill="#E0E0E0"/>
<path d="M95.0514 117.471L95.0254 117.543C94.9012 117.889 95.0813 118.271 95.4276 118.395L117.489 126.307C117.835 126.431 118.216 126.251 118.341 125.905L118.367 125.832C118.491 125.486 118.311 125.105 117.964 124.98L95.9033 117.068C95.557 116.944 95.1756 117.124 95.0514 117.471Z" fill="#E0E0E0"/>
<path d="M95.4378 118.406C95.2836 118.33 95.1578 118.207 95.0791 118.054C95.0366 117.961 95.0146 117.861 95.0146 117.759C95.0146 117.657 95.0366 117.557 95.0791 117.464C95.1333 117.343 95.2241 117.241 95.3389 117.173C95.4538 117.105 95.5868 117.075 95.7197 117.087C96.9239 117.497 98.6917 118.175 100.844 118.957L117.869 125.1C117.957 125.129 118.035 125.18 118.097 125.248C118.159 125.317 118.202 125.4 118.221 125.49C118.244 125.579 118.244 125.671 118.221 125.759C118.197 125.851 118.158 125.937 118.106 126.016C118.052 126.089 117.98 126.149 117.898 126.188C117.815 126.227 117.724 126.245 117.632 126.24C117.434 126.195 117.239 126.135 117.049 126.06L114.66 125.202L110.132 123.582L102.445 120.859L97.2698 119.04L95.8542 118.56L95.4891 118.438L95.361 118.406L95.4827 118.457L95.8414 118.598L97.2377 119.123L102.362 121.045L110.016 123.812L114.538 125.439L116.928 126.304L117.235 126.413C117.345 126.459 117.462 126.489 117.581 126.502C117.705 126.504 117.827 126.476 117.938 126.421C118.05 126.367 118.147 126.287 118.221 126.189C118.295 126.087 118.347 125.971 118.375 125.849C118.404 125.725 118.404 125.595 118.375 125.471C118.345 125.344 118.284 125.226 118.196 125.129C118.109 125.031 117.999 124.958 117.876 124.914L100.831 118.835C98.6405 118.073 96.8919 117.426 95.6364 117.035C95.4846 117.018 95.3313 117.051 95.2003 117.13C95.0694 117.209 94.9682 117.329 94.9126 117.471C94.8639 117.571 94.8386 117.68 94.8386 117.791C94.8386 117.902 94.8639 118.012 94.9126 118.111C94.9693 118.2 95.0469 118.273 95.1384 118.324C95.23 118.376 95.3329 118.404 95.4378 118.406Z" fill="#263238"/>
<path d="M95.5959 114.445L95.57 114.517C95.4458 114.864 95.6258 115.245 95.9721 115.369L118.968 123.617C119.314 123.741 119.696 123.561 119.82 123.214L119.846 123.142C119.97 122.796 119.79 122.414 119.443 122.29L96.4479 114.043C96.1015 113.919 95.7201 114.099 95.5959 114.445Z" fill="#E0E0E0"/>
<path d="M95.982 115.415C95.8173 115.345 95.6863 115.214 95.6169 115.05C95.5792 114.951 95.5636 114.845 95.5714 114.74C95.5791 114.635 95.61 114.533 95.6617 114.441C95.7274 114.316 95.8329 114.216 95.9615 114.157C96.0901 114.097 96.2347 114.083 96.3727 114.114L101.721 116.068L119.406 122.473C119.496 122.506 119.576 122.56 119.638 122.632C119.701 122.704 119.745 122.79 119.765 122.883C119.791 122.975 119.791 123.073 119.765 123.165C119.74 123.261 119.694 123.351 119.63 123.428C119.568 123.498 119.489 123.551 119.4 123.582C119.312 123.614 119.217 123.622 119.124 123.607C118.951 123.562 118.714 123.466 118.484 123.396L116.005 122.461L111.303 120.782L103.335 117.938L97.9612 116.055L96.4944 115.549L96.1101 115.427L95.982 115.389C95.982 115.389 96.0204 115.389 96.1037 115.447L96.4816 115.594L97.9292 116.138L103.284 118.098L111.233 120.974L115.928 122.665L118.413 123.556C118.623 123.641 118.837 123.716 119.054 123.78C119.184 123.8 119.318 123.787 119.442 123.743C119.566 123.698 119.677 123.623 119.765 123.524C119.848 123.425 119.909 123.309 119.944 123.184C119.976 123.054 119.976 122.918 119.944 122.787C119.918 122.655 119.857 122.532 119.768 122.431C119.679 122.33 119.566 122.254 119.438 122.211L101.728 115.889C99.46 115.088 97.6281 114.441 96.3471 114.006C96.1923 113.969 96.0299 113.987 95.8867 114.056C95.7435 114.125 95.6279 114.24 95.5592 114.383C95.5072 114.481 95.4774 114.589 95.4719 114.7C95.4664 114.811 95.4852 114.921 95.5272 115.024C95.5611 115.124 95.6212 115.213 95.7012 115.281C95.7812 115.35 95.8781 115.396 95.982 115.415Z" fill="#263238"/>
<path d="M96.3099 111.487L96.284 111.559C96.1598 111.905 96.3398 112.287 96.6861 112.411L120.273 120.87C120.619 120.994 121 120.814 121.125 120.468L121.151 120.396C121.275 120.049 121.095 119.668 120.748 119.544L97.1618 111.084C96.8155 110.96 96.4341 111.14 96.3099 111.487Z" fill="#E0E0E0"/>
<path d="M96.6927 112.43C96.5299 112.348 96.4008 112.212 96.3276 112.046C96.2856 111.942 96.269 111.83 96.279 111.718C96.2891 111.607 96.3255 111.5 96.3852 111.405C96.4583 111.28 96.5715 111.184 96.7064 111.131C96.8414 111.079 96.99 111.074 97.1282 111.117L102.605 113.122L120.719 119.649C120.81 119.684 120.89 119.742 120.953 119.817C121.016 119.892 121.059 119.982 121.078 120.078C121.09 120.176 121.081 120.275 121.051 120.369C121.021 120.463 120.971 120.549 120.905 120.622C120.838 120.692 120.755 120.743 120.663 120.771C120.571 120.8 120.473 120.803 120.379 120.782C120.181 120.718 119.95 120.629 119.739 120.552L117.177 119.642L112.379 117.977L104.225 115.075L98.7231 113.154L97.2243 112.635L96.8272 112.507H96.6927L96.8208 112.564L97.2051 112.712L98.6911 113.269L104.174 115.274L112.309 118.214L117.119 119.95L119.681 120.866C119.905 120.942 120.098 121.019 120.322 121.096C120.455 121.127 120.594 121.123 120.725 121.085C120.856 121.047 120.975 120.976 121.071 120.878C121.158 120.78 121.223 120.664 121.263 120.539C121.308 120.409 121.321 120.271 121.302 120.135C121.278 120 121.218 119.872 121.129 119.767C121.041 119.661 120.926 119.581 120.796 119.533L102.694 112.987L97.1859 111.065C97.03 111.02 96.8635 111.029 96.7134 111.091C96.5634 111.153 96.4386 111.263 96.3596 111.405C96.3015 111.506 96.2673 111.62 96.2595 111.736C96.2517 111.853 96.2706 111.969 96.3148 112.078C96.3498 112.159 96.4016 112.233 96.4666 112.293C96.5317 112.354 96.6087 112.401 96.6927 112.43Z" fill="#263238"/>
<path d="M96.842 108.466L96.8161 108.538C96.6919 108.885 96.8719 109.266 97.2182 109.39L121.763 118.193C122.11 118.318 122.491 118.138 122.615 117.791L122.641 117.719C122.765 117.373 122.585 116.991 122.239 116.867L97.694 108.064C97.3476 107.94 96.9662 108.12 96.842 108.466Z" fill="#E0E0E0"/>
<path d="M97.2249 109.407C97.0553 109.326 96.9226 109.184 96.8534 109.009C96.8176 108.903 96.8071 108.79 96.8227 108.679C96.8382 108.567 96.8794 108.461 96.943 108.369C97.0268 108.243 97.1526 108.15 97.298 108.108C97.4434 108.066 97.599 108.077 97.7373 108.138L103.419 110.22L122.206 116.99C122.301 117.026 122.385 117.086 122.449 117.165C122.513 117.244 122.555 117.338 122.571 117.439C122.58 117.541 122.566 117.644 122.531 117.741C122.496 117.837 122.439 117.924 122.366 117.996C122.289 118.062 122.197 118.106 122.098 118.124C121.999 118.142 121.897 118.133 121.802 118.099L121.129 117.862L118.49 116.914L113.501 115.127L105.039 112.122L99.3322 110.111L97.7757 109.573L97.3658 109.445C97.3215 109.424 97.2738 109.411 97.2249 109.407L97.3594 109.464L97.7565 109.618L99.3002 110.194L104.988 112.27L113.43 115.325L118.414 117.125L121.053 118.073L121.693 118.316C121.793 118.351 121.898 118.365 122.003 118.358C122.109 118.352 122.211 118.324 122.306 118.278C122.401 118.232 122.485 118.167 122.555 118.088C122.624 118.009 122.678 117.917 122.712 117.817C122.762 117.686 122.779 117.546 122.763 117.407C122.744 117.263 122.687 117.128 122.597 117.015C122.506 116.902 122.386 116.816 122.25 116.766L103.444 110.054L97.7373 108.042C97.5812 107.976 97.4068 107.968 97.245 108.018C97.0832 108.069 96.9444 108.175 96.8534 108.318C96.788 108.419 96.747 108.535 96.7337 108.655C96.7203 108.775 96.735 108.896 96.7765 109.009C96.8299 109.148 96.9294 109.263 97.0583 109.336C97.1073 109.373 97.1645 109.397 97.2249 109.407Z" fill="#263238"/>
<path d="M130.699 104.718C130.615 104.948 128.136 110.31 126.855 113.045C126.622 113.542 126.28 113.98 125.854 114.327C125.428 114.674 124.93 114.921 124.396 115.049L122.807 115.427L98.2941 106.729L97.3141 105.448C96.9744 105.007 96.74 104.495 96.629 103.95C96.518 103.405 96.5332 102.841 96.6735 102.303L98.9923 93.4443L130.699 104.718Z" fill="#FF725E"/>
<g opacity="0.3">
<path d="M116.69 125.971C114.119 125.583 111.601 124.904 109.183 123.947C107.095 123.191 105.026 122.525 102.778 121.666C101.125 121.026 99.6202 120.417 97.9869 119.745C97.3196 119.513 96.7116 119.137 96.2062 118.643L116.69 125.971Z" fill="black"/>
</g>
<g opacity="0.3">
<path d="M118.58 123.415C115.816 122.96 113.108 122.21 110.503 121.18C108.255 120.366 106.019 119.643 103.585 118.727C101.804 118.054 100.184 117.381 98.4224 116.677C97.7108 116.426 97.0572 116.034 96.5009 115.524L118.58 123.415Z" fill="black"/>
</g>
<g opacity="0.3">
<path d="M119.586 120.584C116.822 120.132 114.114 119.387 111.509 118.361C109.254 117.547 107.025 116.824 104.591 115.908C102.81 115.235 101.19 114.569 99.4217 113.858C98.7103 113.607 98.0568 113.214 97.5001 112.705L119.586 120.584Z" fill="black"/>
</g>
<g opacity="0.3">
<path d="M120.591 117.753C117.827 117.302 115.119 116.557 112.514 115.53C110.259 114.716 108.03 113.993 105.596 113.077C103.816 112.436 102.195 111.738 100.427 111.027C99.7147 110.778 99.0607 110.386 98.5057 109.874L120.591 117.753Z" fill="black"/>
</g>
<path d="M126.029 98.4282C126.159 98.4394 126.29 98.4394 126.42 98.4282C126.67 98.4282 127.06 98.4282 127.528 98.3961C128.886 98.316 130.237 98.1361 131.57 97.8581C133.55 97.4529 135.482 96.841 137.334 96.0326C141.909 94.0659 145.899 90.9504 148.915 86.9883C150.146 85.394 151.208 83.6768 152.086 81.864C152.677 80.638 153.177 79.3707 153.585 78.0721C153.738 77.6109 153.815 77.2458 153.886 77.0024C153.923 76.8784 153.953 76.7522 153.975 76.6245C153.916 76.7403 153.871 76.8629 153.841 76.9896C153.758 77.2266 153.668 77.5917 153.501 78.0401C153.062 79.3238 152.54 80.5776 151.939 81.7936C148.872 88.0864 143.665 93.0819 137.251 95.8853C135.411 96.6935 133.495 97.3179 131.531 97.7492C130.207 98.0361 128.865 98.2373 127.515 98.3513C127.035 98.4025 126.663 98.4089 126.407 98.4282H126.029Z" fill="#263238"/>
<path d="M154.719 70.5068C154.56 71.0288 154.469 71.5693 154.45 72.1146C154.357 72.652 154.342 73.1998 154.405 73.7415C154.564 73.2195 154.654 72.6791 154.674 72.1338C154.766 71.5964 154.781 71.0485 154.719 70.5068Z" fill="#263238"/>
<path d="M96.7637 66.7346C96.7918 66.6272 96.8132 66.5181 96.8277 66.4079C96.8597 66.1709 96.9046 65.8571 96.9622 65.4599L97.0519 64.7746C97.0967 64.5312 97.1608 64.2622 97.2185 63.9739C97.3466 63.3974 97.449 62.7377 97.6732 62.0523C97.7757 61.7 97.8782 61.3221 97.9935 60.9378C98.1088 60.5535 98.2689 60.1564 98.4098 59.7464C98.6789 58.9201 99.0504 58.081 99.4731 57.1843C100.394 55.2715 101.501 53.4543 102.778 51.759C104.082 50.0846 105.545 48.5402 107.147 47.1472C107.909 46.5067 108.613 45.9238 109.344 45.4498C109.702 45.2 110.035 44.9438 110.381 44.7324L111.374 44.1367C112.015 43.7332 112.61 43.4577 113.136 43.1823C113.398 43.0542 113.635 42.9197 113.866 42.8172L114.506 42.5482L115.384 42.1703C115.488 42.1303 115.589 42.081 115.685 42.0229C115.577 42.0472 115.472 42.0815 115.371 42.1254L114.474 42.4649L113.834 42.7147C113.603 42.8172 113.36 42.9453 113.091 43.067C112.566 43.336 111.944 43.5987 111.31 43.9958L110.298 44.5851C109.952 44.7964 109.613 45.0463 109.248 45.2897C108.511 45.7701 107.794 46.3721 107.025 46.9871C105.403 48.3791 103.924 49.9306 102.612 51.6181C101.328 53.3301 100.217 55.1645 99.2938 57.0946C98.903 57.9978 98.5059 58.8497 98.2433 59.6567C98.1024 60.0731 97.9487 60.4702 97.8334 60.8609C97.7181 61.2517 97.6284 61.6296 97.5323 61.9883C97.3544 62.6335 97.2111 63.2878 97.1031 63.9483C97.0519 64.2429 96.9943 64.512 96.9558 64.7618C96.9174 65.0116 96.911 65.2422 96.8854 65.4471C96.8469 65.8443 96.8149 66.1645 96.7893 66.4015C96.7651 66.5108 96.7565 66.6229 96.7637 66.7346Z" fill="white"/>
<g opacity="0.2">
<path d="M134.215 48.3257C135.169 47.256 136.867 46.8396 138.699 46.9293C141.284 47.0959 143.7 48.2686 145.431 50.196C150.587 55.7942 152.758 61.085 152.438 69.0724C152.329 71.7691 151.279 75.9133 149.236 77.8733C148.738 78.371 148.144 78.7609 147.489 79.0187C146.835 79.2766 146.134 79.3969 145.431 79.3722C141.748 79.1608 140.242 74.9717 140.307 71.5C140.364 68.2654 141.171 64.877 139.916 61.8921C138.878 59.4389 136.63 57.7479 134.997 55.6341C133.363 53.5204 132.434 50.3049 134.215 48.3257Z" fill="white"/>
</g>
<g opacity="0.2">
<path d="M122.75 42.9641C124.511 41.4525 127.534 41.6382 128.873 42.9257C129.418 43.4766 129.83 44.1438 130.08 44.8771C130.33 45.6105 130.41 46.3909 130.314 47.1596C130.171 48.0823 129.756 48.9412 129.121 49.626C128.487 50.3108 127.662 50.7903 126.753 51.0028C125.835 51.1794 124.885 51.0615 124.038 50.6657C123.192 50.27 122.492 49.6168 122.039 48.7994C121.18 47.1596 121.34 44.1747 122.75 42.9641Z" fill="white"/>
</g>
<path opacity="0.3" d="M130.699 104.718C130.615 104.948 128.136 110.31 126.855 113.045C126.622 113.542 126.28 113.98 125.854 114.327C125.428 114.674 124.93 114.921 124.396 115.049L122.807 115.427L98.2941 106.729L97.3141 105.448C96.9744 105.007 96.74 104.495 96.629 103.95C96.518 103.405 96.5332 102.841 96.6735 102.303L98.9923 93.4443L130.699 104.718Z" fill="black"/>
<path d="M98.8004 93.3999C98.8004 93.464 105.846 96.0325 114.641 99.1647C123.435 102.297 130.532 104.75 130.551 104.692C130.571 104.635 123.506 102.06 114.711 98.9277C105.917 95.7955 98.8517 93.3423 98.8004 93.3999Z" fill="#263238"/>
<path d="M96.8466 103.718C96.8466 103.782 103.361 106.152 111.451 109.022C119.541 111.892 126.112 114.146 126.132 114.108C126.151 114.069 119.617 111.68 111.528 108.811C103.438 105.941 96.8658 103.661 96.8466 103.718Z" fill="#263238"/>
<path d="M118.708 32.1456C118.618 32.1456 117.632 27.0213 116.504 20.7249C115.377 14.4285 114.531 9.26585 114.621 9.24664C114.711 9.22742 115.704 14.3709 116.831 20.6673C117.958 26.9637 118.829 32.1456 118.708 32.1456Z" fill="#263238"/>
<path d="M154.578 0.535743C154.667 0.56777 151.599 8.39505 147.73 18.0158C143.862 27.6366 140.685 35.4062 140.569 35.3742C140.454 35.3422 143.548 27.5149 147.417 17.8941C151.285 8.27335 154.475 0.503717 154.578 0.535743Z" fill="#263238"/>
<path d="M176.183 29.9873C176.234 30.0642 171.424 33.19 165.441 36.9819C159.459 40.7738 154.578 43.7779 154.514 43.6754C154.45 43.5729 159.279 40.4728 165.262 36.6744C171.244 32.8761 176.138 29.9104 176.183 29.9873Z" fill="#263238"/>
<path d="M179.968 61.0016C179.968 61.0977 175.722 60.7326 170.514 60.1881C165.306 59.6437 161.085 59.1312 161.092 59.0416C161.098 58.9519 165.332 59.3106 170.546 59.855C175.76 60.3995 179.975 60.9119 179.968 61.0016Z" fill="#263238"/>
<path d="M132.088 29.7952C131.992 29.7952 132.325 25.856 132.819 21.02C133.312 16.184 133.792 12.2896 133.882 12.2896C133.972 12.2896 133.645 16.2288 133.152 21.0648C132.658 25.9008 132.159 29.8081 132.088 29.7952Z" fill="#263238"/>
<path d="M161.45 22.2622C161.364 22.4889 161.25 22.704 161.111 22.9027C160.874 23.2999 160.521 23.8507 160.067 24.5297C159.157 25.8876 157.838 27.7323 156.268 29.6539C154.699 31.5755 153.181 33.2665 152.041 34.4387C151.477 35.0216 151.01 35.4892 150.67 35.803C150.506 35.9735 150.326 36.1279 150.132 36.2642C150.255 36.0607 150.406 35.8753 150.58 35.7133C150.933 35.3162 151.362 34.8422 151.862 34.2786C152.95 33.068 154.424 31.377 155.993 29.449C157.562 27.521 158.901 25.7147 159.836 24.3952L160.983 22.8131C161.115 22.6108 161.272 22.4257 161.45 22.2622Z" fill="#263238"/>
<path d="M170.277 47.1597C168.628 47.7916 166.94 48.3179 165.223 48.7354C163.544 49.2701 161.833 49.698 160.099 50.0164C161.751 49.3835 163.441 48.8551 165.159 48.4343C166.837 47.9037 168.547 47.478 170.277 47.1597Z" fill="#263238"/>
<path d="M100.094 108.235C100.847 107.203 101.815 106.349 102.932 105.73C104.853 104.648 108.652 104.276 109.388 103.014C110.125 101.752 111.265 103.078 110.605 104.705C110.189 105.743 107.403 108.113 107.403 108.113C107.403 108.113 109.869 109.291 111.803 108.644C113.738 107.998 120.13 107.434 120.636 108.414C121.174 109.516 119.522 109.516 118.766 109.765C118.183 109.951 113.75 111.136 113.75 111.136C113.75 111.136 121.821 112.488 122.756 113.058C123.691 113.628 122.449 114.435 121.943 114.339C121.616 114.288 122.494 115.351 121.334 116.062C120.553 116.542 117.12 116.593 116.21 116.427L114.34 116.075L119.88 117.817C119.88 117.817 120.674 118.906 119.24 119.098C118.599 119.181 100.933 118.176 99.5882 117.983C97.2631 117.65 93.9644 117.061 93.9644 117.061L95.8539 107.504L100.094 108.235Z" fill="#FFBE9D"/>
<path d="M113.75 111.136C114.038 111.121 114.326 111.14 114.609 111.194C115.16 111.258 115.954 111.36 116.927 111.514C117.901 111.667 119.067 111.86 120.348 112.154C121.023 112.294 121.687 112.484 122.334 112.724C122.52 112.793 122.695 112.89 122.852 113.013C122.899 113.056 122.94 113.106 122.974 113.16L123.038 113.294C123.084 113.386 123.118 113.483 123.141 113.583C123.164 113.694 123.164 113.809 123.138 113.919C123.113 114.03 123.063 114.134 122.993 114.223C122.84 114.382 122.644 114.493 122.43 114.543C122.051 114.611 121.667 114.645 121.283 114.646H120.194C119.483 114.646 118.798 114.646 118.144 114.646C116.831 114.601 115.659 114.505 114.673 114.39C113.686 114.274 112.899 114.153 112.36 114.044C112.074 114.011 111.792 113.944 111.521 113.845C111.809 113.84 112.097 113.863 112.38 113.916C112.924 113.98 113.718 114.069 114.698 114.159C115.678 114.249 116.851 114.313 118.151 114.339C118.791 114.339 119.483 114.339 120.188 114.339L121.27 114.3C121.629 114.297 121.986 114.267 122.34 114.21C122.492 114.176 122.632 114.101 122.743 113.993C122.784 113.939 122.811 113.878 122.823 113.812C122.836 113.746 122.832 113.679 122.814 113.615C122.795 113.538 122.769 113.463 122.737 113.391L122.686 113.275C122.686 113.275 122.686 113.243 122.635 113.218C122.503 113.124 122.361 113.047 122.212 112.987C121.585 112.753 120.943 112.561 120.29 112.411C119.009 112.116 117.869 111.898 116.902 111.712L114.602 111.29C114.315 111.261 114.03 111.21 113.75 111.136Z" fill="#EB996E"/>
<path d="M150.734 87.7886L152.502 83.7597C152.502 83.7597 148.864 79.1479 148.858 77.3544L148.787 76.3103C148.787 76.3103 146.635 74.1966 147.545 72.7233C147.269 71.5448 147.481 70.8402 148.486 70.8914C148.486 70.8914 146.84 69.3285 148.364 67.8873C149.889 66.4461 155.859 73.7802 155.859 73.7802C155.859 73.7802 158.581 77.0918 157.204 78.0141C157.204 78.0141 158.094 80.2496 155.833 80.9734C155.833 80.9734 156.679 82.5555 155.141 84.3746L154.501 85.1752C153.759 86.0806 152.825 86.8092 151.766 87.3082L150.734 87.7886Z" fill="#FFBE9D"/>
<path d="M154.911 80.2754C154.911 80.2754 155.058 80.2754 155.27 80.3651C155.557 80.5356 155.781 80.7938 155.91 81.1017C156.115 81.573 156.147 82.1016 156 82.5941C155.817 83.1971 155.521 83.76 155.129 84.2531C154.452 85.1617 153.657 85.976 152.765 86.6743C152.412 86.9881 152.009 87.2413 151.574 87.4237C152.783 86.4225 153.886 85.3 154.866 84.0737C155.237 83.6133 155.523 83.0906 155.712 82.5301C155.861 82.0985 155.861 81.6293 155.712 81.1978C155.559 80.8072 155.276 80.4814 154.911 80.2754Z" fill="#EB996E"/>
<path d="M154.494 76.4643C154.411 76.522 153.316 74.9783 151.631 73.377C149.947 71.7756 148.358 70.7444 148.429 70.6611C148.823 70.7996 149.193 71.0007 149.524 71.2568C151.2 72.3744 152.668 73.777 153.86 75.4011C154.124 75.7212 154.338 76.0797 154.494 76.4643Z" fill="#EB996E"/>
<path d="M153.624 78.3472C153.547 78.4113 152.342 76.9957 150.658 75.4456C148.973 73.8956 147.494 72.7746 147.551 72.6978C149.948 74.1354 152.017 76.06 153.624 78.3472Z" fill="#EB996E"/>
<path d="M155.718 76.7591C155.718 76.6694 156.359 76.7143 156.89 77.2843C157.422 77.8544 157.403 78.5013 157.313 78.4949C157.223 78.4885 157.095 77.9761 156.672 77.5085C156.25 77.0409 155.699 76.8488 155.718 76.7591Z" fill="#EB996E"/>
<path d="M151.791 80.0638C151.24 79.518 150.74 78.9219 150.299 78.2831C149.773 77.716 149.301 77.1005 148.89 76.4448C150.137 77.3976 151.132 78.6397 151.791 80.0638Z" fill="#EB996E"/>
<path d="M78.8093 102.694C80.3274 86.271 83.056 62.5586 83.056 62.5586C83.056 62.5586 80.9423 56.8771 79.8021 54.379L78.2777 50.728L74.9341 54.9876L62.4117 59.3368C60.5772 60.3372 58.9715 61.7094 57.6974 63.3657C55.4428 66.421 54.1489 69.1305 53.4699 74.165C51.5996 88.0325 48.6788 107.28 51.3498 111.739C52.0608 112.93 55.3467 114.794 60.061 116.504L55.2122 150.644C61.6879 155.621 66.556 155.07 75.9846 152.054C75.9846 152.054 77.3489 131.762 77.7204 120.988C86.2651 122.82 93.4582 124.229 93.4582 124.229L96.1933 107.786L78.8093 102.694Z" fill="#455A64"/>
<path d="M68.3496 99.4013C67.1684 99.727 66.0401 100.221 64.9996 100.868C64.0219 101.609 63.1586 102.489 62.4375 103.481C62.5267 103.119 62.6927 102.781 62.9243 102.489C63.9439 100.99 65.4855 99.9261 67.2479 99.5038C67.6038 99.3922 67.9792 99.3572 68.3496 99.4013Z" fill="#263238"/>
<path d="M65.3963 75.9132C65.2602 75.3391 65.1766 74.7538 65.1465 74.1645C65.0312 73.082 64.8711 71.6024 64.6597 69.937C64.3394 67.3749 64.0192 65.1523 63.9103 64.3452H64.0192C64.0192 64.5886 64.0192 64.7167 64.0192 64.7167C64.0192 64.7167 63.9679 64.6014 63.9103 64.358H64.0256C64.4566 66.1975 64.7817 68.0603 64.9992 69.937C65.2106 71.5896 65.3323 73.0949 65.3899 74.1838C65.4496 74.7586 65.4517 75.3379 65.3963 75.9132Z" fill="#263238"/>
<path d="M68.4071 82.9146C68.417 83.0104 68.417 83.107 68.4071 83.2028C68.4071 83.4142 68.4071 83.696 68.4071 84.0547C68.4071 84.8169 68.4071 85.9186 68.3495 87.3278C68.2854 90.1846 68.1893 94.2968 68.0741 99.3826L67.9908 99.2673L96.1741 107.472L96.315 107.511V107.658L95.271 113.967L93.5864 124.094V124.254H93.4262C81.6085 122.333 71.3215 120.142 64.1348 117.952C61.2939 117.121 58.526 116.058 55.8591 114.775L54.6357 114.134L53.7966 113.59L53.2842 113.244C53.226 113.207 53.1703 113.166 53.1177 113.122C53.1831 113.149 53.2454 113.184 53.3034 113.224L53.8287 113.538L54.6806 114.057L55.904 114.659C58.5766 115.878 61.339 116.888 64.1668 117.683C71.3472 119.815 81.6341 121.961 93.4455 123.87L93.2533 124.005L94.9379 113.871C95.2966 111.713 95.6489 109.58 95.9884 107.562L96.1036 107.748L67.9203 99.4594H67.8307V99.4018C67.9908 94.316 68.1189 90.2038 68.2086 87.347C68.2598 85.9379 68.3046 84.8426 68.3303 84.0803C68.3303 83.7152 68.3303 83.4398 68.3687 83.2284C68.3731 83.1229 68.386 83.018 68.4071 82.9146Z" fill="#263238"/>
<path opacity="0.3" d="M75.1073 55.4482C75.2098 55.9607 79.3476 69.6872 79.3476 69.6872C79.6414 67.8116 80.1023 65.9659 80.7248 64.1723C81.6151 62.0329 81.2116 61.9368 81.2116 61.9368C81.2116 61.9368 79.7768 62.4492 79.2515 64.627C79.1555 65.0178 78.9569 66.2988 78.9569 66.2988L75.1073 55.4482Z" fill="black"/>
<path d="M82.7233 64.2744C82.6845 64.0631 82.6652 63.8487 82.6656 63.6339C82.6723 63.3518 82.6186 63.0716 82.5081 62.812C82.3977 62.5524 82.233 62.3194 82.0251 62.1286C81.8839 62.0092 81.7101 61.9349 81.5262 61.9155C81.3423 61.8961 81.1568 61.9324 80.9938 62.0197C80.6171 62.2768 80.3039 62.6164 80.0779 63.0125C79.4851 63.9265 79.1427 64.9801 79.085 66.0679L79.0402 66.971L78.7648 66.1127C78.5918 65.5811 78.4125 65.0302 78.2139 64.473C77.2852 61.834 76.2923 59.4896 75.7095 57.7474C75.4084 56.8763 75.1842 56.1653 75.0369 55.6721C74.9508 55.4183 74.8907 55.1565 74.8575 54.8906C74.9826 55.1283 75.0855 55.3771 75.165 55.6336L75.9336 57.6641C76.5742 59.3807 77.599 61.7123 78.5342 64.3641C78.7264 64.9277 78.9121 65.4786 79.0786 66.0102L78.752 66.0551C78.8214 64.9092 79.1975 63.8031 79.8409 62.8524C80.0961 62.4213 80.4522 62.0586 80.8785 61.7955C81.0841 61.6913 81.3162 61.6515 81.5447 61.6812C81.7733 61.7109 81.9875 61.8088 82.1596 61.9621C82.4373 62.193 82.6328 62.5076 82.7169 62.8588C82.7797 63.1123 82.8099 63.3727 82.8065 63.6339C82.8099 63.8503 82.7819 64.066 82.7233 64.2744Z" fill="#263238"/>
</g>
</svg>
