
<svg width="201" height="160" viewBox="0 0 201 160" fill="none" xmlns="http://www.w3.org/2000/svg">
<path d="M185.487 22.9766L184.489 21.3241C176.085 7.43796 160.883 -0.931885 144.865 0.0829241C142.802 0.212077 140.752 0.493698 138.731 0.925494C124.161 4.05371 111.485 15.1002 106.229 29.2424C103.142 37.561 102.278 47.1412 96.4139 53.7468C88.7806 62.3401 75.8263 62.5914 64.4321 62.2516C53.0379 61.9118 40.079 62.2004 32.4829 70.8263C27.7283 76.2541 26.2147 83.9211 26.6 91.1504C27.6122 110.311 40.9287 127.46 57.8621 135.956C74.7955 144.451 94.7331 145.233 113.268 141.486C139.233 136.24 163.92 121.832 178.764 99.5901C193.608 77.3481 197.36 47.0016 185.487 22.9766Z" fill="#E0E1E3"/>
<path d="M51.7564 37.8871C61.965 37.8871 70.2407 29.59 70.2407 19.3552C70.2407 9.12026 61.965 0.823242 51.7564 0.823242C41.5479 0.823242 33.2722 9.12026 33.2722 19.3552C33.2722 29.59 41.5479 37.8871 51.7564 37.8871Z" fill="#E0E1E3"/>
<path d="M23.2242 159.166C23.0315 158.433 22.9877 157.668 23.0954 156.917C23.203 156.166 23.46 155.445 23.8511 154.795C24.6456 153.5 25.7257 152.404 27.0084 151.593C29.4367 149.959 32.738 149.312 35.6539 149.163C35.6121 152.421 33.1419 155.265 31.8001 156.611C29.6735 158.771 24.529 161.378 23.2242 159.148" fill="#FF725E"/>
<path d="M37.4786 143.879C36.955 144.546 36.2645 145.062 35.4775 145.374C34.6905 145.687 33.835 145.784 32.998 145.658C32.1615 145.52 31.3609 145.216 30.6433 144.763C29.9257 144.311 29.3055 143.719 28.8192 143.023C28.3549 142.39 27.9881 141.603 28.1878 140.844C28.3021 140.496 28.5076 140.185 28.7828 139.943C29.058 139.702 29.3929 139.539 29.7525 139.471C30.4748 139.341 31.2185 139.407 31.9069 139.662C34.2888 140.416 36.4618 141.584 37.4786 143.879Z" fill="#FF725E"/>
<path d="M46.3007 140.495C46.1399 140.617 45.9691 140.724 45.79 140.816L44.3692 141.64C42.8139 142.597 41.1141 143.295 39.336 143.707C37.5488 144.101 35.6892 144.007 33.95 143.437C33.4282 143.258 32.9294 143.017 32.4642 142.72C32.2971 142.618 32.181 142.52 32.0974 142.46C32.0138 142.399 31.9767 142.362 31.9813 142.357C32.6215 142.732 33.2963 143.044 33.9965 143.288C35.7174 143.8 37.5391 143.87 39.2942 143.493C41.0413 143.076 42.7171 142.401 44.267 141.491C44.8753 141.17 45.3721 140.905 45.7157 140.733C45.9025 140.635 46.0985 140.555 46.3007 140.495Z" fill="#263238"/>
<path d="M26.9714 156.834C27.0228 156.763 27.0819 156.697 27.1479 156.639C27.2918 156.508 27.4682 156.336 27.6911 156.122C28.1554 155.657 28.8565 155.033 29.7155 154.26C31.4427 152.691 33.8525 150.536 36.5687 148.264C39.285 145.993 41.7876 143.944 43.6216 142.511C44.5503 141.789 45.2839 141.212 45.8085 140.821L46.4075 140.355C46.4772 140.3 46.5518 140.252 46.6304 140.211C46.573 140.279 46.5075 140.34 46.4354 140.392L45.8596 140.858L43.7145 142.599C41.9083 144.065 39.4196 146.104 36.7034 148.399C33.9872 150.694 31.5635 152.808 29.8177 154.344L27.7283 156.183L27.1618 156.671C27.103 156.731 27.0393 156.785 26.9714 156.834Z" fill="#263238"/>
<path d="M41.5506 145.965C40.4017 147.333 39.5944 148.955 39.1955 150.698C38.7966 152.441 38.8177 154.254 39.2569 155.987C39.489 156.867 39.9859 157.849 40.882 157.966C41.7781 158.082 42.5163 157.258 42.9482 156.457C43.8177 154.77 44.1697 152.863 43.9598 150.976C43.7499 149.089 42.9876 147.306 41.7688 145.853" fill="#FF725E"/>
<path d="M41.1003 153.897C41.0262 153.722 40.9702 153.539 40.9332 153.352C40.8737 153.138 40.8272 152.92 40.7939 152.701C40.7567 152.445 40.6871 152.156 40.6639 151.83C40.6235 151.475 40.6034 151.117 40.6035 150.759C40.5934 150.349 40.6058 149.939 40.6407 149.53C40.7272 148.592 40.9187 147.666 41.2118 146.77C41.5225 145.879 41.9337 145.026 42.4375 144.228C42.6576 143.883 42.8995 143.551 43.1619 143.237C43.3824 142.956 43.6197 142.688 43.8723 142.436C44.0763 142.223 44.2918 142.021 44.5177 141.831C44.6794 141.681 44.8517 141.542 45.033 141.417C45.1758 141.294 45.3315 141.188 45.4974 141.1C45.5299 141.137 44.8612 141.598 43.9744 142.539C43.7324 142.794 43.5045 143.063 43.2919 143.344C43.043 143.662 42.8105 143.993 42.5954 144.335C42.1102 145.124 41.7131 145.964 41.4114 146.84C41.1222 147.72 40.9276 148.628 40.831 149.549C40.7985 149.973 40.766 150.378 40.7753 150.759C40.7681 151.112 40.7805 151.465 40.8125 151.816C40.9239 153.106 41.1421 153.888 41.1003 153.897Z" fill="#263238"/>
<path d="M50.6001 131.981C56.5897 123.709 54.8439 112.82 51.3477 103.696C50.7626 102.174 50.3726 100.489 49.1747 99.3905C47.9768 98.2919 45.9524 97.9614 44.8009 99.0879C43.8444 100.019 43.8072 101.523 43.5472 102.845C43.2007 104.609 42.3637 106.239 41.1328 107.546C40.3296 108.393 39.2245 109.129 38.073 108.943C36.4943 108.668 35.705 106.885 35.185 105.349L32.2877 96.7371C31.7677 95.2009 31.2337 93.6368 30.254 92.3473C29.2743 91.0579 27.7606 90.071 26.1681 90.1641C24.5755 90.2572 23.0618 91.7236 23.2708 93.3296C23.433 93.9837 23.6393 94.626 23.8883 95.2521C24.0647 95.9038 24.009 96.7138 23.4704 97.1142C22.9318 97.5145 22.1611 97.2817 21.5482 96.9885C19.4356 95.9876 17.6805 94.3677 15.9764 92.7337C14.2724 91.0998 12.6195 89.4007 10.6044 88.2136C8.58924 87.0266 6.15161 86.3516 3.91827 87.0033C1.68494 87.655 -0.176951 89.7964 0.0134166 92.1239C0.203784 94.4514 2.21425 96.2343 4.19222 97.5098C7.11909 99.4091 10.3048 100.874 13.6502 101.858C14.2715 101.968 14.8419 102.273 15.28 102.728C15.9671 103.636 15.3496 104.986 14.4581 105.67C13.4506 106.443 12.1737 106.755 11.0315 107.309C9.88931 107.863 8.77961 108.836 8.70996 110.102C8.62639 111.889 10.4976 113.076 12.1552 113.705C15.4736 114.967 18.9839 115.648 22.5325 115.716C23.8001 115.739 25.1094 115.688 26.2888 116.181C27.4681 116.675 28.4896 117.848 28.3132 119.114C28.1367 120.38 26.8506 121.218 25.597 121.409C24.3433 121.6 23.0711 121.321 21.7989 121.288C19.4263 121.218 16.7611 122.307 16.0461 124.593C15.5818 126.097 16.0461 127.787 17.0072 129.062C18.0058 130.289 19.2387 131.303 20.6335 132.046C25.3456 134.901 30.7292 136.451 36.2343 136.538C41.69 136.538 46.3656 135.435 50.5955 131.981" fill="#455A64"/>
<path d="M50.9809 134.76C49.3883 131.218 49.1979 131.199 46.2263 127.019C42.9636 122.519 39.4461 118.211 35.6911 114.115L32.7567 110.879C31.7909 109.818 30.8344 108.766 29.8315 107.793C27.9088 105.932 25.8844 104.179 23.7676 102.542C21.7571 100.964 19.7931 99.5443 17.9452 98.2269C16.0972 96.9095 14.3467 95.7225 12.7077 94.703C10.1292 93.0828 7.4261 91.671 4.62407 90.4809C3.63508 90.0619 2.85969 89.7593 2.32573 89.5498L1.72212 89.3264L1.51318 89.2612C1.57668 89.2985 1.64352 89.3296 1.71284 89.3543L2.30716 89.6057C2.82718 89.8198 3.59794 90.141 4.58228 90.5786C7.35887 91.8072 10.0393 93.2434 12.6009 94.8753C14.226 95.904 15.9625 97.1004 17.8059 98.4224C19.6492 99.7445 21.5993 101.174 23.6005 102.752C25.7057 104.388 27.7207 106.138 29.6365 107.993C30.6301 108.962 31.5773 110.004 32.5431 111.07L35.4775 114.329C39.2243 118.414 42.74 122.707 46.0081 127.186C48.9844 131.348 49.184 131.339 50.7952 134.858" fill="white"/>
<path d="M29.7479 107.811C29.7467 107.574 29.7218 107.337 29.6736 107.104C29.6086 106.638 29.4879 106.001 29.3347 105.2C29.0236 103.603 28.5221 101.406 27.9417 98.9854C27.3613 96.5648 26.9063 94.3676 26.6231 92.7662C26.4791 91.9656 26.3677 91.3185 26.2981 90.867C26.2731 90.6315 26.2249 90.3992 26.1541 90.1733C26.1358 90.4095 26.1452 90.647 26.182 90.8809C26.2191 91.3464 26.2981 91.9935 26.4141 92.7988C26.6463 94.4141 27.0874 96.63 27.6539 99.0506C28.2203 101.471 28.7264 103.599 29.1164 105.247C29.2836 105.991 29.4275 106.643 29.5436 107.109C29.5865 107.349 29.655 107.585 29.7479 107.811Z" fill="white"/>
<path d="M8.82593 110.94C9.10134 110.905 9.37319 110.845 9.63847 110.763C10.1585 110.633 10.9107 110.442 11.8486 110.232C13.7058 109.804 16.3153 109.301 19.2079 108.873C22.1006 108.445 24.7379 108.18 26.6369 108.04C27.5934 107.961 28.3688 107.919 28.9027 107.886C29.1814 107.886 29.4596 107.861 29.7339 107.812C29.4575 107.768 29.1774 107.754 28.8981 107.77C28.3595 107.77 27.5795 107.77 26.623 107.826C24.7007 107.914 22.0495 108.152 19.1476 108.575C16.6696 108.932 14.2116 109.416 11.7836 110.028C10.855 110.26 10.1074 110.493 9.59204 110.651C9.32817 110.723 9.07166 110.82 8.82593 110.94Z" fill="white"/>
<path d="M45.8592 126.739C45.8887 126.646 45.9059 126.549 45.9103 126.451C45.9381 126.227 45.966 125.953 46.0031 125.622C46.0774 124.901 46.161 123.858 46.2446 122.564C46.4117 119.975 46.5371 116.396 46.616 112.448C46.6949 108.501 46.7878 104.916 46.9039 102.333C46.9642 101.071 47.0153 100.038 47.0525 99.2696C47.0525 98.9344 47.0525 98.6598 47.085 98.4363C47.1011 98.3392 47.1011 98.2402 47.085 98.1431C47.0554 98.2366 47.0383 98.3337 47.0339 98.4317C47.0339 98.6551 46.9828 98.9251 46.9457 99.2603C46.8714 99.9772 46.7878 101.025 46.7042 102.319C46.5324 104.902 46.4117 108.482 46.3281 112.439C46.2446 116.396 46.1563 119.966 46.0449 122.55C45.9845 123.807 45.9335 124.845 45.8963 125.613C45.8963 125.948 45.8963 126.223 45.8638 126.446C45.8512 126.543 45.8496 126.642 45.8592 126.739Z" fill="#263238"/>
<path d="M16.8308 127.353C16.9295 127.365 17.0292 127.365 17.128 127.353H17.9777L21.0839 127.293C23.7119 127.242 27.3382 127.214 31.3498 127.186C35.3615 127.158 38.9924 127.097 41.6157 126.995C42.9297 126.944 43.993 126.888 44.722 126.837L45.567 126.772C45.6659 126.77 45.7641 126.756 45.8595 126.73C45.7608 126.719 45.6611 126.719 45.5624 126.73H44.7173L41.6065 126.79C38.9831 126.842 35.3522 126.869 31.3452 126.897C27.3382 126.925 23.7026 126.981 21.0793 127.088C19.7653 127.139 18.702 127.19 17.9684 127.246L17.128 127.307C17.0271 127.306 16.9267 127.322 16.8308 127.353Z" fill="white"/>
<path d="M41.2933 34.2792C41.2933 34.2792 40.0582 109.128 50.3613 159.473L178.85 159.073L145.215 33.6787L41.2933 34.2792Z" fill="#E0E0E0"/>
<path d="M41.2935 34.2788L145.216 33.5806H145.29L145.313 33.6504C154.892 69.3549 166.458 112.438 178.966 159.04L179.008 159.193H178.85L168.635 159.226L50.3615 159.58H50.2733V159.496C49.8399 157.181 49.4143 154.892 48.9964 152.63C48.7968 151.494 48.5646 150.372 48.3882 149.246C48.2118 148.119 48.0492 147.002 47.8774 145.889C47.5431 143.658 47.2104 141.456 46.8792 139.284C46.6037 137.111 46.3328 134.954 46.0666 132.813C45.9335 131.752 45.8004 130.695 45.6673 129.643C45.5373 128.591 45.4398 127.544 45.3284 126.505C45.1148 124.423 44.9028 122.372 44.6923 120.351C44.4648 118.331 44.3255 116.329 44.149 114.36C43.9726 112.391 43.8147 110.455 43.6522 108.551C42.4729 93.2774 41.925 79.9173 41.6046 68.9127C41.2842 57.9081 41.2378 49.2449 41.2332 43.3376C41.2332 40.3817 41.2332 38.1193 41.2657 36.5924C41.2657 35.829 41.2749 35.2517 41.2935 34.8607C41.2935 34.493 41.2935 34.33 41.2935 34.2788C41.2935 34.5023 41.2935 37.4583 41.2935 43.3376C41.2935 49.217 41.3957 57.9034 41.7207 68.908C42.0457 79.9127 42.6493 93.2681 43.8194 108.537C43.9865 110.441 44.1537 112.382 44.3208 114.346C44.488 116.311 44.6412 118.312 44.8687 120.333C45.0962 122.353 45.2959 124.406 45.5141 126.482C45.6255 127.52 45.723 128.568 45.8531 129.62C45.9831 130.672 46.1177 131.728 46.2524 132.79C46.5217 134.922 46.7941 137.077 47.0695 139.256C47.4038 141.43 47.7335 143.632 48.0725 145.857C48.2458 146.968 48.4176 148.086 48.5878 149.213C48.7596 150.34 48.9964 151.461 49.1961 152.593C49.6171 154.855 50.0427 157.142 50.4729 159.454L50.3708 159.37L168.645 158.979L178.86 158.951L178.744 159.1C166.254 112.498 154.702 69.4061 145.132 33.7063L145.23 33.7761L41.2935 34.2788Z" fill="#263238"/>
<path d="M41.2934 34.2787C41.2934 34.2787 41.1866 44.1428 42.8535 61.7065C43.9539 73.3442 43.8331 88.5896 46.9069 108.039C53.4072 149.129 56.8199 155.413 56.8199 155.413L182.137 154.562L148.786 32.4399L41.2934 34.2787Z" fill="#EBEBEB"/>
<path d="M41.2935 34.2791L148.786 32.3379H148.865V32.4124C158.458 67.3721 169.917 109.342 182.272 154.562L182.314 154.716H182.161L175.331 154.762L56.82 155.516H56.7736L56.7458 155.46C56.292 154.4 55.9073 153.312 55.5943 152.202C55.26 151.117 54.9674 150.023 54.6656 148.943C54.3638 147.863 54.1085 146.774 53.8531 145.685C53.5977 144.595 53.3516 143.529 53.1102 142.459C52.1475 138.185 51.2932 133.996 50.5472 129.89C49.015 121.664 47.7242 113.83 46.5773 106.456C46.0155 102.769 45.5698 99.185 45.1844 95.7123C44.799 92.2396 44.5251 88.8972 44.2976 85.6759C43.8333 79.2286 43.5779 73.298 43.2436 67.9493C43.0857 65.2726 42.8721 62.7449 42.6493 60.3662C42.4264 57.9874 42.25 55.7576 42.0967 53.6815C41.7856 49.5245 41.586 45.9866 41.4653 43.1144C41.3446 40.2422 41.2888 38.0404 41.2703 36.5554C41.2703 35.8106 41.2703 35.2473 41.2703 34.8703C41.2703 34.4932 41.2703 34.3023 41.2703 34.3023C41.2703 34.4094 41.2703 35.0937 41.3028 36.5507C41.3353 38.0078 41.3956 40.2422 41.5303 43.1098C41.6649 45.9773 41.8739 49.5198 42.1942 53.6722C42.3521 55.7483 42.5378 57.9828 42.7607 60.3569C42.9836 62.731 43.2018 65.2633 43.3643 67.94C43.7079 73.2934 43.9726 79.2239 44.4462 85.6619C44.6783 88.8833 44.977 92.2287 45.3423 95.6983C45.7091 99.1617 46.1595 102.746 46.7352 106.433C47.8867 113.802 49.1821 121.632 50.7236 129.853C51.4851 133.968 52.341 138.168 53.2913 142.454C53.5281 143.525 53.7556 144.605 54.0342 145.68C54.3128 146.755 54.5635 147.845 54.8467 148.939C55.13 150.033 55.4271 151.108 55.7753 152.197C56.0856 153.288 56.4656 154.358 56.9129 155.4L56.82 155.344L175.326 154.543L182.156 154.497L182.04 154.65C169.694 109.408 158.235 67.428 148.707 32.4682L148.805 32.5427L41.2935 34.2791Z" fill="#263238"/>
<path d="M160.125 38.2451L41.3957 40.2701C40.8943 72.5531 52.2327 122.94 60.5439 149.441L185.146 148.133C172.387 114.174 157.72 75.565 160.125 38.2451Z" fill="#F5F5F5"/>
<path d="M160.125 38.2451C160.125 38.3522 160.125 38.9713 160.064 40.3166C160.064 41.0009 160.013 41.8528 159.981 42.8676C159.948 43.8824 159.865 45.0602 159.921 46.3869C159.981 49.0449 159.958 52.3268 160.287 56.1625C160.352 57.1246 160.419 58.1223 160.487 59.1558C160.589 60.1845 160.714 61.2506 160.835 62.3492C160.956 63.4478 161.086 64.579 161.216 65.7427C161.346 66.9065 161.56 68.1029 161.736 69.3271C161.912 70.5514 162.112 71.8176 162.312 73.1071C162.511 74.3965 162.799 75.7093 163.05 77.0593C163.301 78.4092 163.542 79.7918 163.858 81.1883C164.174 82.5848 164.489 84.0186 164.814 85.4803C164.981 86.2112 165.139 86.9513 165.32 87.6915L165.887 89.9352C166.274 91.4435 166.665 92.9812 167.062 94.5484C167.458 96.1156 167.904 97.6999 168.399 99.3013C168.626 100.107 168.863 100.921 169.091 101.736L169.838 104.198C173.808 117.465 179.227 132.129 185.244 148.096L185.295 148.236H185.147L64.6671 149.525L60.5347 149.567H60.4418L60.4186 149.483C57.4145 139.777 54.8469 130.104 52.595 120.58C50.3431 111.055 48.3651 101.671 46.7029 92.4909C45.0406 83.311 43.6849 74.336 42.7144 65.6031C41.7162 57.1964 41.237 48.736 41.2797 40.2701V40.1677H41.3819L160.111 38.2451L41.3865 40.3771L41.4887 40.2747C41.4509 48.7316 41.9347 57.1828 42.9373 65.5798C43.9077 74.2988 45.2589 83.2691 46.935 92.449C48.6112 101.629 50.5613 111.004 52.8271 120.524C55.093 130.043 57.6467 139.712 60.6461 149.409L60.5301 149.325L64.6671 149.283L185.147 148.045L185.049 148.184C179.041 132.217 173.636 117.54 169.676 104.264C169.425 103.435 169.179 102.611 168.928 101.796C168.677 100.982 168.464 100.162 168.241 99.3571L166.908 94.6043C166.515 93.034 166.125 91.4947 165.738 89.9864C165.548 89.2323 165.362 88.4828 165.172 87.7427C164.981 87.0025 164.838 86.2577 164.675 85.5269C164.35 84.0652 164.03 82.636 163.719 81.2302C163.407 79.8244 163.18 78.4372 162.915 77.0965C162.651 75.7558 162.405 74.4338 162.186 73.1443L161.615 69.3737C161.443 68.1448 161.225 66.953 161.1 65.7893C160.974 64.6255 160.849 63.485 160.728 62.3864C160.608 61.2878 160.487 60.2218 160.389 59.193C160.292 58.1642 160.255 57.1587 160.194 56.1998C159.879 52.35 159.907 49.0682 159.856 46.4241C159.809 45.0927 159.911 43.929 159.934 42.9142C159.958 41.8994 160.009 41.0521 160.037 40.3678C160.097 38.9806 160.12 38.3522 160.125 38.2451Z" fill="#263238"/>
<path d="M160.342 32.2446L41.2931 34.2789C40.7917 66.5573 46.0709 96.2148 54.3867 122.726L88.7457 144.055L188.466 142.351C175.697 108.383 157.937 69.5645 160.342 32.2446Z" fill="#FAFAFA"/>
<path d="M160.343 32.2446C160.343 32.3517 160.315 32.9801 160.259 34.3348C160.227 35.0284 160.185 35.8942 160.18 36.9137C160.176 37.9331 160.134 39.1202 160.18 40.4609C160.314 48.2103 161.103 55.9344 162.539 63.5501C164.327 73.4096 167.475 85.1916 172.02 98.3934C174.281 104.999 176.872 111.963 179.681 119.281C182.49 126.599 185.527 134.256 188.559 142.31L188.61 142.449H188.461L88.7459 144.172H88.7088H88.6809L73.823 134.936L54.3498 122.833L54.3126 122.809V122.767C49.6063 107.781 46.1263 92.4354 43.9074 76.8823C41.9194 62.7733 41.0253 48.5311 41.233 34.2836V34.1811H41.3351L160.385 32.2539L41.3398 34.3906L41.4419 34.2882C41.2345 48.5135 42.1224 62.7335 44.0978 76.8218C46.3174 92.3606 49.7958 107.692 54.4984 122.665L54.4473 122.6L73.9205 134.703L88.7784 143.943H88.7134L188.429 142.258L188.336 142.398C185.309 134.345 182.277 126.678 179.477 119.36C176.677 112.042 174.086 105.073 171.83 98.4633C167.298 85.2521 164.164 73.4561 162.395 63.5873C160.956 55.9649 160.18 48.2318 160.073 40.4748C160.036 39.1342 160.073 37.9471 160.097 36.9276C160.12 35.9082 160.152 35.0656 160.189 34.358C160.315 32.9848 160.338 32.3517 160.343 32.2446Z" fill="#263238"/>
<path d="M54.4844 122.712L84.7342 119.453L88.732 144.051L54.4844 122.712Z" fill="#E0E0E0"/>
<path d="M88.7318 144.051C88.7172 144.012 88.7078 143.971 88.704 143.93C88.704 143.832 88.6622 143.716 88.6297 143.567L88.3789 142.17C88.17 140.927 87.8682 139.158 87.4967 136.961C86.7678 132.529 85.7556 126.389 84.6134 119.481L84.748 119.584L81.9296 119.886L62.4564 121.948L56.5551 122.544L54.9485 122.698L54.5307 122.73H54.3867C54.4318 122.715 54.4786 122.706 54.526 122.703L54.9439 122.647L56.5458 122.451L62.4379 121.776L81.9064 119.649L84.7202 119.346H84.8362V119.458C85.9413 126.371 86.9256 132.492 87.6221 136.952C87.9611 139.149 88.2396 140.927 88.43 142.17C88.5167 142.772 88.5863 143.238 88.639 143.567L88.6854 143.934C88.7083 143.97 88.7241 144.009 88.7318 144.051Z" fill="#263238"/>
<path d="M137.995 65.9102C137.995 65.9754 121.953 66.3059 102.169 66.6457C82.3847 66.9856 66.3335 67.1997 66.3335 67.1345C66.3335 67.0694 82.3708 66.7388 102.164 66.4037C121.958 66.0685 137.995 65.8451 137.995 65.9102Z" fill="#263238"/>
<path d="M139.996 77.1054C139.996 77.1706 123.955 77.5011 104.166 77.8409C84.3767 78.1807 68.3347 78.3949 68.3347 78.3297C68.3347 78.2645 84.372 77.934 104.166 77.5942C123.959 77.2544 139.992 77.0402 139.996 77.1054Z" fill="#263238"/>
<path d="M144.482 88.2591C144.482 88.3242 128.44 88.6548 108.656 88.9899C88.8713 89.3251 72.8201 89.5485 72.8201 89.4834C72.8201 89.4182 88.8574 89.0877 108.651 88.7479C128.445 88.408 144.482 88.1893 144.482 88.2591Z" fill="#263238"/>
<path d="M149.171 100.903C149.171 100.972 133.129 101.298 113.345 101.638C93.5608 101.978 77.5095 102.197 77.5095 102.127C77.5095 102.057 93.5468 101.736 113.34 101.396C133.134 101.056 149.171 100.837 149.171 100.903Z" fill="#263238"/>
<path d="M154.492 112.666C154.492 112.731 138.45 113.062 118.666 113.397C98.8816 113.732 82.8303 113.955 82.8303 113.89C82.8303 113.825 98.8676 113.494 118.661 113.155C138.455 112.815 154.492 112.596 154.492 112.666Z" fill="#263238"/>
<path d="M196.916 149.036C196.879 149.004 197.469 148.366 198.221 147.202C198.658 146.517 199.043 145.799 199.372 145.056C200.183 143.236 200.656 141.283 200.765 139.293C200.81 138.486 200.791 137.677 200.71 136.872C200.575 135.476 200.334 134.657 200.385 134.643C200.463 134.83 200.524 135.025 200.566 135.224C200.634 135.452 200.688 135.684 200.728 135.918C200.779 136.193 200.849 136.505 200.881 136.849C200.985 137.666 201.021 138.489 200.988 139.312C200.941 140.318 200.803 141.319 200.575 142.3C200.332 143.279 200.002 144.234 199.591 145.154C199.246 145.901 198.841 146.619 198.379 147.3C198.188 147.598 197.984 147.84 197.817 148.063C197.672 148.253 197.517 148.435 197.353 148.608C197.222 148.765 197.076 148.909 196.916 149.036Z" fill="#263238"/>
<path d="M189.775 151.69C189.748 151.662 190.328 151.131 191.168 150.181C193.327 147.701 194.869 144.743 195.667 141.551C195.974 140.331 196.076 139.554 196.132 139.563C196.129 139.754 196.107 139.944 196.067 140.131C196.012 140.629 195.928 141.123 195.816 141.611C195.096 144.863 193.531 147.867 191.28 150.316C190.942 150.687 190.584 151.038 190.207 151.368C190.078 151.494 189.933 151.602 189.775 151.69Z" fill="#263238"/>
<path d="M171.209 77.277C179.888 73.3263 183.729 63.0698 179.788 54.3686C175.848 45.6673 165.618 41.8162 156.939 45.767C148.26 49.7177 144.419 59.9742 148.359 68.6754C152.3 77.3767 162.53 81.2278 171.209 77.277Z" fill="#FF725E"/>
<path d="M163.653 55.4779C163.722 59.4906 163.79 63.5033 163.858 67.516C163.886 69.0103 166.207 69.0149 166.179 67.516C166.114 63.5033 166.046 59.4906 165.975 55.4779C165.952 53.9836 163.63 53.979 163.653 55.4779Z" fill="white"/>
<path d="M158.495 62.7727L171.342 62.5492C172.833 62.5492 172.837 60.2217 171.342 60.2217L158.495 60.4451C157.004 60.4684 157 62.7959 158.495 62.7727Z" fill="white"/>
</svg>
