
<svg width="166" height="166" viewBox="0 0 166 166" fill="none" xmlns="http://www.w3.org/2000/svg">
<path d="M11.64 118.57L11.9952 118.039C14.9832 113.547 20.1657 110.981 25.4844 111.545C26.1699 111.615 26.8491 111.737 27.5162 111.91C29.9315 112.568 32.1467 113.813 33.9648 115.534C35.783 117.255 37.1477 119.398 37.9377 121.774C38.8474 124.579 39.0001 127.77 40.8593 130.047C43.2796 133.009 47.5889 133.281 51.387 133.324C55.1851 133.367 59.4978 133.656 61.9048 136.621C63.412 138.483 63.8071 141.056 63.5648 143.454C62.9572 149.801 58.2826 155.303 52.5258 157.889C46.7689 160.475 40.1189 160.449 34.0035 158.945C25.4346 156.836 17.4035 151.704 12.7887 144.101C8.17387 136.498 7.34719 126.379 11.64 118.57Z" fill="#E0E1E3"/>
<path d="M156.422 125.662L156.16 125.184C155.103 123.199 153.523 121.541 151.592 120.39C149.661 119.238 147.452 118.636 145.204 118.65C144.617 118.66 144.032 118.714 143.454 118.809C141.356 119.184 139.383 120.071 137.71 121.392C136.038 122.713 134.718 124.428 133.869 126.382C132.873 128.706 132.511 131.389 130.762 133.178C128.484 135.502 124.809 135.409 121.585 135.17C118.361 134.931 114.683 134.838 112.415 137.162C110.994 138.627 110.463 140.778 110.476 142.83C110.51 148.261 114.059 153.281 118.743 155.914C123.428 158.547 129.072 159.025 134.374 158.211C141.804 157.076 148.982 153.328 153.494 147.235C158.005 141.143 159.47 132.611 156.422 125.662Z" fill="#E0E1E3"/>
<path d="M85.4601 25.3281L85.4369 25.8726C85.3125 28.1151 85.8035 30.3489 86.8568 32.3326C87.9101 34.3162 89.4855 35.9743 91.4129 37.1274C91.9182 37.4238 92.4454 37.6813 92.9899 37.8976C94.9796 38.6623 97.1273 38.9239 99.2424 38.6592C101.358 38.3945 103.375 37.6118 105.115 36.3804C107.153 34.9129 108.866 32.7981 111.29 32.1706C114.44 31.3572 117.538 33.3426 120.167 35.2283C122.797 37.1141 125.898 39.0895 129.048 38.2628C131.02 37.7416 132.588 36.1745 133.637 34.4149C136.419 29.7669 135.981 23.6216 133.335 18.9437C130.688 14.2659 126.12 10.9326 121.18 8.88414C114.235 6.01566 106.144 5.50106 99.1385 8.38614C92.1333 11.2712 86.4495 17.805 85.4601 25.3281Z" fill="#E0E1E3"/>
<path d="M36.2345 32.4363C41.6601 32.4363 46.0584 28.038 46.0584 22.6125C46.0584 17.1869 41.6601 12.7886 36.2345 12.7886C30.8089 12.7886 26.4106 17.1869 26.4106 22.6125C26.4106 28.038 30.8089 32.4363 36.2345 32.4363Z" fill="#E0E1E3"/>
<path d="M147.214 106.56C152.211 104.446 154.548 98.6821 152.434 93.6852C150.321 88.6884 144.556 86.3512 139.559 88.465C134.562 90.5789 132.225 96.3432 134.339 101.34C136.453 106.337 142.217 108.674 147.214 106.56Z" fill="#E0E1E3"/>
<path d="M141.21 98.3453C140.509 97.2514 139.443 96.441 138.202 96.0578C138.268 96.8279 138.151 97.6028 137.858 98.3182C137.565 99.0336 137.106 99.6689 136.518 100.171C136.696 99.0512 136.689 97.9095 136.499 96.7915C136.482 96.5008 136.365 96.2249 136.167 96.0113C135.904 95.8378 135.588 95.7669 135.277 95.8121C133.999 95.8557 132.729 96.0338 131.489 96.3433C131.816 97.2497 131.919 98.2221 131.788 99.1769C131.656 100.132 131.295 101.04 130.735 101.825C129.925 102.937 128.743 103.724 127.764 104.677C126.784 105.629 125.908 106.898 126.021 108.269L126.472 109.657C129.56 109.846 132.617 108.634 135.104 106.768C137.591 104.902 139.51 102.426 141.213 99.8426C141.365 99.6486 141.467 99.4208 141.512 99.1786C141.509 98.8745 141.403 98.5803 141.21 98.3453Z" fill="#FF725E"/>
<path d="M125.413 108.75C125.483 108.843 125.234 109.178 124.712 109.59C123.323 110.645 121.633 111.227 119.888 111.25C119.224 111.25 118.819 111.127 118.819 111.014C118.819 110.762 120.377 110.613 122.139 109.995C123.902 109.378 125.257 108.564 125.413 108.75Z" fill="#FF725E"/>
<path d="M126.492 109.441C126.441 109.788 126.288 110.112 126.053 110.372C125.817 110.632 125.51 110.816 125.17 110.902C124.83 110.987 124.472 110.97 124.142 110.852C123.812 110.734 123.524 110.521 123.315 110.24C123.106 109.958 122.985 109.621 122.967 109.27C122.95 108.92 123.037 108.573 123.217 108.272C123.397 107.971 123.663 107.73 123.98 107.58C124.297 107.43 124.651 107.377 124.998 107.429C125.463 107.498 125.881 107.748 126.161 108.126C126.441 108.503 126.56 108.976 126.492 109.441Z" fill="#FF725E"/>
<path d="M126.492 109.441C126.472 109.441 126.492 109.285 126.465 109.009C126.415 108.623 126.238 108.264 125.961 107.99C125.79 107.817 125.584 107.682 125.356 107.595C125.129 107.509 124.885 107.472 124.643 107.488C124.4 107.503 124.163 107.571 123.949 107.687C123.734 107.802 123.547 107.962 123.4 108.156C123.253 108.35 123.15 108.573 123.097 108.811C123.044 109.048 123.042 109.294 123.093 109.532C123.143 109.77 123.244 109.995 123.389 110.19C123.534 110.386 123.719 110.548 123.932 110.666C124.183 110.801 124.463 110.872 124.747 110.872C125.032 110.872 125.312 110.801 125.562 110.666C125.905 110.482 126.178 110.19 126.339 109.836C126.452 109.583 126.472 109.424 126.492 109.427C126.498 109.466 126.498 109.505 126.492 109.544C126.478 109.657 126.45 109.769 126.409 109.876C126.262 110.261 125.985 110.583 125.625 110.785C125.412 110.906 125.177 110.983 124.934 111.011C124.69 111.039 124.444 111.017 124.209 110.948C123.974 110.879 123.755 110.764 123.565 110.609C123.376 110.453 123.22 110.262 123.106 110.045C122.919 109.696 122.851 109.295 122.911 108.904C122.971 108.513 123.155 108.151 123.438 107.874C123.611 107.701 123.817 107.564 124.044 107.471C124.271 107.379 124.514 107.333 124.759 107.336C125.003 107.338 125.245 107.39 125.47 107.488C125.695 107.585 125.898 107.727 126.067 107.904C126.352 108.202 126.522 108.591 126.548 109.002C126.562 109.113 126.562 109.224 126.548 109.334C126.535 109.373 126.516 109.409 126.492 109.441Z" fill="#263238"/>
<path d="M130.054 106.572C129.503 107 128.907 107.369 128.278 107.671C127.676 108.025 127.037 108.314 126.372 108.531C126.959 108.158 127.568 107.819 128.195 107.518C128.796 107.168 129.417 106.852 130.054 106.572Z" fill="#263238"/>
<path d="M134.417 104.344C134.361 104.458 134.291 104.564 134.208 104.66C134.002 104.934 133.781 105.196 133.544 105.443C131.988 107.102 129.988 108.278 127.783 108.833C127.456 108.918 127.123 108.983 126.787 109.029C126.664 109.054 126.538 109.065 126.412 109.059C126.412 109.029 126.937 108.949 127.76 108.727C129.919 108.11 131.882 106.95 133.464 105.357C134.068 104.749 134.394 104.325 134.417 104.344Z" fill="#263238"/>
<path d="M128.351 105.576C128.017 106.053 127.655 106.51 127.266 106.944C126.918 107.407 126.544 107.851 126.147 108.272C126.411 107.745 126.746 107.257 127.143 106.821C127.488 106.354 127.895 105.935 128.351 105.576Z" fill="#263238"/>
<path d="M132.495 99.6666C132.196 98.85 131.681 98.1303 131.004 97.585C130.716 97.3132 130.366 97.116 129.985 97.0106C129.321 96.8645 128.657 97.1833 128.049 97.4987C128.565 97.684 129.026 97.9965 129.389 98.4073C129.753 98.8181 130.006 99.3138 130.127 99.8487C130.248 100.384 130.232 100.94 130.08 101.467C129.929 101.994 129.647 102.475 129.261 102.864C128.64 103.488 127.79 103.84 127.146 104.437C126.68 104.878 126.336 105.431 126.148 106.044C125.959 106.656 125.933 107.307 126.07 107.933L132.252 102.16C132.473 101.788 132.61 101.371 132.652 100.94C132.694 100.509 132.64 100.074 132.495 99.6666Z" fill="#FF725E"/>
<path d="M32.2737 108.431L72.8806 91.2007L128.086 117.542L101.223 125.742L58.2095 119.514L32.2737 108.431Z" fill="#263238"/>
<path d="M32.3866 106.204L32.2737 108.431L72.8806 91.2006L73.4516 88.3853L32.3866 106.204Z" fill="#263238"/>
<path d="M128.086 117.541L128.58 115.105L73.4517 88.3853L72.8806 91.2006L128.086 117.541Z" fill="#263238"/>
<path opacity="0.3" d="M128.086 117.541L128.58 115.105L73.4517 88.3853L72.8806 91.2006L128.086 117.541Z" fill="white"/>
<path opacity="0.4" d="M32.2737 108.431L72.8806 91.2007L128.086 117.542L101.223 125.742L58.2095 119.514L32.2737 108.431Z" fill="black"/>
<path d="M49.9659 129.587L54.1226 109.142L105.168 119.52L101.552 139.855L49.9659 129.587Z" fill="#263238"/>
<path d="M105.294 118.813C106.193 114.042 95.4628 108.015 81.327 105.351C67.1912 102.688 55.0032 104.397 54.1042 109.168C53.2052 113.94 63.9357 119.967 78.0715 122.63C92.2073 125.293 104.395 123.584 105.294 118.813Z" fill="#263238"/>
<path opacity="0.3" d="M99.5037 111.602L94.5934 133.328L101.499 140.064L105.151 120.31C105.342 119.383 105.312 118.424 105.063 117.511C104.814 116.598 104.352 115.756 103.717 115.055C102.504 113.688 101.082 112.522 99.5037 111.602Z" fill="white"/>
<path opacity="0.2" d="M49.976 129.59L54.0695 109.461C54.0695 109.361 54.0894 109.261 54.1094 109.162C55.0058 104.391 67.1968 102.681 81.3333 105.344L78.4782 119.374C78.1062 121.217 77.0564 122.854 75.5362 123.96C74.016 125.067 72.136 125.563 70.2678 125.35C66.7884 124.955 62.6318 124.653 59.5774 124.945C50.7528 125.785 49.976 129.593 49.976 129.593" fill="black"/>
<path d="M102.389 135.221C102.259 135.914 101.638 139.367 101.585 139.52C100.088 143.863 87.2695 140.971 75.2444 138.707C63.1497 136.429 52.0277 133.909 49.8962 129.875C49.8962 129.875 50.7462 126.293 50.8723 125.622C51.7123 121.174 64.0295 119.915 78.2789 122.598C92.5284 125.28 103.225 130.772 102.389 135.221Z" fill="#FF725E"/>
<path d="M101.565 139.789C100.729 144.238 88.4115 145.566 74.1621 142.88C59.9126 140.194 49.0396 134.417 49.8763 129.968C50.7129 125.52 62.9438 124.089 77.1932 126.771C91.4427 129.454 102.402 135.343 101.565 139.789Z" fill="#263238"/>
<path d="M101.794 139.835C101.84 139.446 101.819 139.052 101.731 138.67C101.565 137.916 100.958 136.91 99.8988 135.901C97.7673 133.879 93.9858 131.791 89.059 130.018C86.3684 129.052 83.6222 128.248 80.8353 127.611C77.6384 126.867 74.4001 126.312 71.1376 125.951C67.5357 125.531 63.9033 125.437 60.2845 125.669C58.3756 125.789 56.4842 126.106 54.6405 126.615C53.7073 126.879 52.8139 127.268 51.9845 127.77C51.7767 127.9 51.5771 128.041 51.3869 128.195C51.2013 128.352 51.0282 128.523 50.869 128.707C50.5419 129.069 50.3133 129.509 50.205 129.985C50.0224 130.951 50.4208 131.93 50.9952 132.704C51.5843 133.481 52.2768 134.173 53.0536 134.762C54.5837 135.915 56.2306 136.905 57.9672 137.714C61.2477 139.258 64.6613 140.503 68.1662 141.432C71.3333 142.286 74.5483 142.951 77.7942 143.424C80.6208 143.852 83.4696 144.117 86.3266 144.218C91.5622 144.39 95.8484 143.869 98.5774 142.787C99.9386 142.246 100.878 141.538 101.306 140.898C101.53 140.575 101.694 140.215 101.791 139.835C101.791 139.835 101.768 139.935 101.718 140.127C101.687 140.243 101.644 140.354 101.589 140.459C101.52 140.616 101.435 140.765 101.336 140.904C100.911 141.568 99.9652 142.282 98.604 142.837C95.865 143.942 91.5689 144.497 86.32 144.324C83.4578 144.233 80.6033 143.976 77.771 143.554C74.5165 143.079 71.2928 142.414 68.1164 141.562C64.5991 140.64 61.1722 139.402 57.8775 137.863C56.1287 137.051 54.4706 136.056 52.9307 134.895C52.1412 134.296 51.4375 133.591 50.8391 132.8C50.536 132.397 50.2984 131.949 50.1353 131.472C49.969 130.983 49.9291 130.46 50.0191 129.952C50.129 129.447 50.3681 128.979 50.713 128.594C50.8762 128.401 51.0562 128.223 51.2508 128.063C51.4471 127.905 51.6521 127.759 51.865 127.624C52.7127 127.111 53.6264 126.716 54.5808 126.449C56.4384 125.936 58.3444 125.618 60.2679 125.5C63.8959 125.269 67.5372 125.367 71.1476 125.792C74.4159 126.151 77.6598 126.705 80.8619 127.452C83.6526 128.096 86.4021 128.908 89.0955 129.882C94.0257 131.675 97.8105 133.783 99.9386 135.835C100.998 136.854 101.599 137.88 101.758 138.643C101.8 138.809 101.825 138.978 101.831 139.148C101.845 139.272 101.845 139.396 101.831 139.52C101.811 139.736 101.794 139.835 101.794 139.835Z" fill="#455A64"/>
<path opacity="0.4" d="M100.312 139.479C101.024 135.7 90.6987 130.583 77.2494 128.049C63.8002 125.515 52.3203 126.524 51.6084 130.302C50.8965 134.081 61.2221 139.198 74.6714 141.732C88.1206 144.266 99.6005 143.257 100.312 139.479Z" fill="black"/>
<path opacity="0.2" d="M51.6061 130.293C51.6061 130.293 55.6598 132.385 62.406 133.394C69.1523 134.404 84.235 129.656 84.235 129.656C84.235 129.656 55.6864 122.382 51.6061 130.293Z" fill="black"/>
<path d="M80.842 56.6228C81.4185 55.6804 82.3119 54.9742 83.3619 54.6308C83.3185 55.287 83.4323 55.9441 83.6939 56.5475C83.9554 57.1509 84.3572 57.6832 84.8658 58.1002C84.6966 57.1492 84.6832 56.177 84.826 55.2217C84.8391 54.9747 84.9377 54.74 85.1049 54.5577C85.3248 54.4056 85.593 54.3394 85.8585 54.3718C86.9481 54.3853 88.0332 54.5144 89.0955 54.7569C88.8332 55.5335 88.7632 56.3621 88.8916 57.1717C89.02 57.9813 89.3429 58.7476 89.8325 59.4049C90.543 60.3378 91.5523 60.9886 92.4155 61.782C93.2787 62.5755 94.0323 63.6379 93.9626 64.8099L93.6007 65.9984C90.9746 66.2142 88.3485 65.2348 86.2138 63.691C84.079 62.1472 82.3858 60.0723 80.9018 57.9043C80.7692 57.739 80.6781 57.5443 80.6362 57.3366C80.623 57.0823 80.6955 56.831 80.842 56.6228Z" fill="#FF725E"/>
<path d="M94.4739 65.2051C94.6233 65.0092 95.7753 65.6632 97.2925 66.1347C98.8098 66.6061 100.121 66.7522 100.128 67.0012C100.128 67.1174 99.7958 67.2369 99.2181 67.2668C98.4764 67.2925 97.7359 67.188 97.0303 66.958C96.3226 66.7418 95.6576 66.4049 95.0648 65.962C94.6199 65.5935 94.4075 65.298 94.4739 65.2051Z" fill="#FF725E"/>
<path d="M93.5609 65.8124C93.611 66.1062 93.747 66.3785 93.9519 66.595C94.1567 66.8114 94.421 66.9623 94.7116 67.0286C95.0021 67.0948 95.3058 67.0735 95.5842 66.9672C95.8626 66.861 96.1033 66.6746 96.2758 66.4316C96.4483 66.1886 96.5449 65.8999 96.5534 65.602C96.5619 65.3042 96.4819 65.0104 96.3235 64.758C96.1652 64.5056 95.9355 64.3057 95.6636 64.1838C95.3917 64.0618 95.0898 64.0232 94.7959 64.0728C94.6005 64.1057 94.4135 64.1769 94.2457 64.2822C94.0778 64.3875 93.9324 64.5249 93.8177 64.6865C93.7029 64.8481 93.6212 65.0307 93.5772 65.2239C93.5331 65.4171 93.5276 65.6171 93.5609 65.8124Z" fill="#FF725E"/>
<path d="M93.5609 65.8124C93.5609 65.8124 93.5443 65.7825 93.5311 65.7194C93.5138 65.6275 93.5071 65.534 93.5111 65.4406C93.526 65.0869 93.6647 64.7496 93.9029 64.4877C94.0804 64.2926 94.3043 64.1455 94.554 64.0601C94.8036 63.9748 95.0707 63.954 95.3305 63.9997C95.6538 64.0542 95.9521 64.208 96.1841 64.4396C96.4161 64.6712 96.5703 64.9693 96.6254 65.2925C96.6805 65.6157 96.6337 65.948 96.4915 66.2434C96.3493 66.5388 96.1188 66.7827 95.8318 66.9412C95.6003 67.0682 95.3406 67.1348 95.0765 67.1348C94.8125 67.1348 94.5527 67.0682 94.3212 66.9412C94.0104 66.7721 93.7685 66.4996 93.6373 66.171C93.6021 66.0846 93.5775 65.9943 93.5643 65.902C93.5643 65.839 93.5643 65.8058 93.5643 65.8024C93.5643 65.7991 93.6008 65.9319 93.7037 66.1344C93.8436 66.4302 94.0769 66.6717 94.3677 66.8217C94.6046 66.9427 94.8704 66.9954 95.1356 66.974C95.4007 66.9526 95.6546 66.8579 95.869 66.7004C96.0834 66.543 96.2498 66.329 96.3496 66.0825C96.4493 65.8359 96.4786 65.5665 96.4341 65.3043C96.3895 65.042 96.273 64.7973 96.0974 64.5976C95.9218 64.3978 95.6941 64.2508 95.4397 64.1729C95.1854 64.0951 94.9144 64.0895 94.6571 64.1569C94.3998 64.2242 94.1662 64.3617 93.9826 64.5541C93.753 64.791 93.6072 65.0965 93.5676 65.424C93.5543 65.6796 93.5775 65.8124 93.5609 65.8124Z" fill="#263238"/>
<path d="M90.4833 63.4121C91.036 63.6252 91.572 63.8793 92.0868 64.1724C92.6291 64.4148 93.1529 64.6966 93.6539 65.0157C92.5252 64.6368 91.4573 64.0967 90.4833 63.4121Z" fill="#263238"/>
<path d="M86.7284 61.6129C86.755 61.5963 87.0405 61.9449 87.5684 62.4528C88.9455 63.7722 90.635 64.7204 92.4786 65.2084C93.1858 65.3944 93.634 65.4574 93.6307 65.4873C93.5205 65.5024 93.4088 65.5024 93.2987 65.4873C93.0084 65.4552 92.7202 65.4064 92.4355 65.3412C90.5395 64.9159 88.8088 63.9467 87.4555 62.5524C87.2499 62.3438 87.058 62.122 86.8811 61.8884C86.8186 61.8035 86.7673 61.7109 86.7284 61.6129Z" fill="#263238"/>
<path d="M91.9175 62.5425C92.3249 62.8321 92.6855 63.1825 92.9865 63.5816C93.3321 63.9446 93.6208 64.3576 93.8431 64.8067C93.4817 64.4634 93.1486 64.0915 92.8471 63.6945C92.5068 63.336 92.196 62.9508 91.9175 62.5425Z" fill="#263238"/>
<path d="M88.2855 57.5956C88.5238 56.8945 88.9498 56.2721 89.5172 55.7962C89.7577 55.5604 90.0515 55.3862 90.3737 55.2882C90.9381 55.1521 91.5125 55.4144 92.0337 55.67C91.5977 55.8374 91.2109 56.1119 90.9091 56.4683C90.6072 56.8247 90.4001 57.2515 90.3068 57.7091C90.2134 58.1667 90.237 58.6405 90.3752 59.0866C90.5134 59.5327 90.7618 59.9368 91.0975 60.2616C91.6387 60.7795 92.3657 61.065 92.9268 61.563C93.3311 61.9298 93.6335 62.3951 93.8046 62.9135C93.9757 63.4319 94.0095 63.9857 93.9029 64.5211L88.5378 59.7171C88.3427 59.4036 88.2189 59.0511 88.1753 58.6844C88.1317 58.3178 88.1693 57.9461 88.2855 57.5956Z" fill="#FF725E"/>
<path d="M121.774 73.3752L90.8053 74.3247L131.84 39.2456L160.343 41.2907L121.774 73.3752Z" fill="#263238"/>
<path d="M130.861 37.1841C130.493 37.4165 89.8192 72.5985 89.8325 72.7811C89.8458 72.9637 90.8053 74.3116 90.8053 74.3116L160.356 41.2909L159.888 39.6907L130.861 37.1841Z" fill="#263238"/>
<path opacity="0.4" d="M121.774 73.3752L90.8053 74.3247L131.84 39.2456L160.343 41.2907L121.774 73.3752Z" fill="black"/>
<path d="M131.84 39.2457L130.861 37.1973L159.875 39.6906L160.343 41.2908L131.84 39.2457Z" fill="#263238"/>
<path opacity="0.3" d="M131.84 39.2457L130.861 37.1973L159.875 39.6906L160.343 41.2908L131.84 39.2457Z" fill="white"/>
<path d="M117.863 84.2019L109.115 69.6702L145.393 47.8213L154.407 61.9911L117.863 84.2019Z" fill="#263238"/>
<path d="M130.863 64.5867C140.794 58.4103 147.155 50.687 145.071 47.3364C142.987 43.9857 133.247 46.2764 123.317 52.4528C113.386 58.6293 107.025 66.3525 109.109 69.7031C111.193 73.0538 120.933 70.7631 130.863 64.5867Z" fill="#263238"/>
<path opacity="0.3" d="M137.647 46.1945L146.651 61.9047L154.49 62.1471L145.811 48.3126C145.417 47.6514 144.872 47.0929 144.22 46.6826C143.569 46.2724 142.829 46.0221 142.063 45.9521C140.587 45.7994 139.097 45.8812 137.647 46.1945Z" fill="white"/>
<path opacity="0.2" d="M117.86 84.1954L109.228 69.8928C109.178 69.8264 109.128 69.76 109.085 69.6903C107 66.3404 113.361 58.6147 123.292 52.4263L129.297 62.3863C130.085 63.6949 130.354 65.2511 130.051 66.7481C129.748 68.2452 128.895 69.5744 127.661 70.4738C125.357 72.1338 122.714 74.2453 121.021 76.1178C116.24 81.4862 117.86 84.1954 117.86 84.1954Z" fill="black"/>
<path d="M152.873 59.5709C153.148 60.0158 154.533 62.197 154.579 62.3066C155.884 65.4373 146.641 70.7859 138.195 76.0448C129.749 81.3036 121.671 85.9881 118.325 84.9589C118.325 84.9589 116.891 82.5752 116.625 82.1469C114.865 79.3149 121.817 72.0209 131.824 65.7893C141.83 59.5576 151.113 56.7423 152.873 59.5709Z" fill="#FF725E"/>
<path d="M154.712 62.4625C156.472 65.2912 149.679 72.6317 139.672 78.8633C129.666 85.095 120.128 87.8506 118.368 85.0186C116.608 82.1866 123.295 74.8395 133.308 68.6078C143.321 62.3762 152.946 59.6306 154.712 62.4625Z" fill="#263238"/>
<path d="M154.712 62.4693C154.527 62.215 154.292 62.0014 154.021 61.8419C153.685 61.6643 153.323 61.541 152.949 61.4767C152.435 61.3958 151.915 61.3669 151.395 61.3903C149.045 61.4899 145.725 62.4295 141.88 64.1194C137.384 66.1346 133.111 68.6149 129.131 71.5197C126.773 73.2123 124.553 75.0896 122.491 77.1338C121.395 78.2121 120.4 79.389 119.52 80.6497C119.074 81.2911 118.708 81.9846 118.431 82.7147C118.296 83.0796 118.215 83.462 118.189 83.8501C118.149 84.2351 118.236 84.6227 118.436 84.9536C118.637 85.2845 118.941 85.5406 119.301 85.6828C119.659 85.8387 120.038 85.9394 120.426 85.9816C121.2 86.0612 121.981 86.0433 122.75 85.9285C124.269 85.7013 125.762 85.3334 127.212 84.8295C129.957 83.8822 132.621 82.7176 135.18 81.3469C137.506 80.1163 139.766 78.7643 141.95 77.2965C143.858 76.025 145.698 74.6553 147.464 73.1929C150.691 70.5104 153.025 67.9673 154.171 65.9122C154.426 65.4595 154.635 64.9823 154.795 64.4879C154.901 64.1234 154.952 63.7453 154.948 63.3657C154.925 63.0525 154.838 62.7472 154.692 62.4693L154.808 62.6785C154.905 62.8947 154.964 63.1261 154.981 63.3624C154.996 63.7468 154.95 64.1311 154.845 64.5012C154.69 65.0011 154.484 65.4839 154.231 65.9421C153.095 68.0237 150.768 70.5901 147.544 73.2892C145.778 74.7585 143.937 76.1359 142.03 77.416C139.845 78.8932 137.583 80.252 135.253 81.4863C132.686 82.8662 130.013 84.0386 127.259 84.9922C125.799 85.4993 124.295 85.8694 122.767 86.0978C121.98 86.2168 121.181 86.2347 120.39 86.1509C119.985 86.1093 119.59 86.004 119.218 85.8388C118.826 85.6842 118.496 85.406 118.276 85.0465C118.057 84.687 117.961 84.2658 118.003 83.8468C118.029 83.4406 118.114 83.0403 118.255 82.6583C118.538 81.9152 118.91 81.2095 119.364 80.5567C120.249 79.288 121.25 78.1034 122.352 77.0176C124.423 74.9639 126.654 73.0788 129.025 71.3802C133.017 68.4753 137.305 66.0003 141.817 63.9965C145.675 62.3166 149.011 61.3937 151.382 61.314C151.905 61.2945 152.429 61.3279 152.946 61.4136C153.323 61.4858 153.688 61.6169 154.025 61.802C154.228 61.9224 154.409 62.0774 154.559 62.2602C154.655 62.4162 154.712 62.4693 154.712 62.4693Z" fill="#455A64"/>
<path opacity="0.4" d="M139.384 77.9544C148.827 72.0716 155.27 65.3547 153.773 62.9517C152.276 60.5488 143.407 63.3697 133.963 69.2525C124.519 75.1353 118.077 81.8523 119.574 84.2552C121.071 86.6582 129.94 83.8372 139.384 77.9544Z" fill="black"/>
<path opacity="0.2" d="M119.573 84.2619C119.573 84.2619 123.099 83.1995 127.704 80.1119C132.309 77.0243 139.032 66.3638 139.032 66.3638C139.032 66.3638 118.016 77.8344 119.573 84.2619Z" fill="black"/>
<path d="M20.0992 62.768C20.1158 62.8775 19.4352 63.1 18.2832 63.2427C17.61 63.3219 16.9324 63.3563 16.2547 63.3457C15.424 63.3289 14.5954 63.2557 13.7746 63.1265C12.9551 62.9912 12.1454 62.8015 11.351 62.5588C10.7033 62.3572 10.07 62.112 9.45532 61.8251C8.40952 61.3337 7.83184 60.9055 7.88164 60.8059C7.99452 60.5735 10.5376 61.7521 13.9108 62.2733C17.2839 62.7945 20.0627 62.5123 20.0992 62.768Z" fill="#FF725E"/>
<path d="M7.96799 58.6146C8.17527 57.7098 8.69633 56.9076 9.43875 56.3504C9.57937 56.8845 9.84512 57.3774 10.214 57.7885C10.5829 58.1995 11.0444 58.5168 11.5602 58.7142C11.1734 58.0018 10.9044 57.2316 10.7634 56.4334C10.7056 56.2321 10.7209 56.0169 10.8066 55.8258C10.9439 55.6519 11.1398 55.5339 11.3577 55.4938C12.2275 55.214 13.1245 55.027 14.0336 54.936C14.0347 55.6237 14.2023 56.3008 14.522 56.9096C14.8418 57.5184 15.3041 58.0407 15.8696 58.432C16.683 58.9831 17.6591 59.2321 18.5555 59.6338C19.4519 60.0356 20.3383 60.683 20.594 61.6258L20.6238 62.6683C18.592 63.5382 16.2414 63.4585 14.1299 62.7978C12.0184 62.1371 10.1227 60.9353 8.35311 59.6106C8.20426 59.5134 8.08031 59.3826 7.99123 59.2288C7.91707 59.032 7.90892 58.8164 7.96799 58.6146Z" fill="#FF725E"/>
<path d="M17.4598 61.4565C17.9576 61.4647 18.4534 61.5203 18.9406 61.6225C19.4358 61.6652 19.926 61.7541 20.4047 61.8881C19.9057 61.9243 19.4042 61.8919 18.914 61.7919C18.4161 61.7479 17.9267 61.635 17.4598 61.4565Z" fill="#263238"/>
<path d="M13.9904 61.015C13.9904 60.9918 14.3224 61.1943 14.8835 61.4532C15.6064 61.787 16.3665 62.0333 17.1477 62.187C17.9299 62.3338 18.7271 62.384 19.5215 62.3364C20.1324 62.2998 20.5175 62.2334 20.5175 62.26C20.5175 62.2866 20.4279 62.2998 20.2619 62.3397C20.0236 62.3958 19.7818 62.4358 19.5381 62.4592C17.9171 62.6273 16.2824 62.3156 14.837 61.5628C14.6187 61.4505 14.408 61.3241 14.2062 61.1843C14.0601 61.088 13.9837 61.025 13.9904 61.015Z" fill="#263238"/>
<path d="M18.3629 60.374C18.7703 60.484 19.1556 60.6637 19.5017 60.9052C19.8755 61.0986 20.2126 61.3559 20.4977 61.6655C20.1154 61.4984 19.7506 61.2938 19.4087 61.0546C19.0394 60.8613 18.6892 60.6335 18.3629 60.374Z" fill="#263238"/>
<path d="M73.4416 58.3458C73.3906 58.2465 73.3306 58.152 73.2624 58.0636C73.1727 56.9779 67.2498 47.8413 67.2498 47.8413L32.028 67.7281L37.818 77.5088H37.8413C39.9063 80.2412 48.9732 78.5048 58.5415 73.4584C68.4218 68.2394 75.0917 61.4765 73.4416 58.3458Z" fill="#263238"/>
<path d="M73.445 58.3592C73.3919 58.2596 73.113 57.5458 73.0134 57.2935C72.5253 56.2872 71.9707 55.3145 71.3534 54.3818C73.0134 57.5126 66.151 64.4448 56.2707 69.6538C46.719 74.6903 37.6787 76.4333 35.5837 73.7175L37.838 77.5222H37.8613C39.9263 80.2579 48.9932 78.5182 58.5615 73.4752C68.4252 68.2495 75.0951 61.49 73.445 58.3592Z" fill="#FF725E"/>
<g opacity="0.4">
<path d="M37.6753 77.2799L32.4762 68.4852L47.5357 61.3306C47.356 64.2212 46.5937 67.0457 45.2946 69.6342C43.9955 72.2228 42.1864 74.5219 39.9761 76.3934C39.3619 76.9047 38.6481 77.406 37.8546 77.3894" fill="black"/>
</g>
<g opacity="0.1">
<path d="M68.1596 67.0974C65.8356 62.2004 62.9306 57.6122 60.0189 53.0405L54.8928 54.82L51.46 56.7722L59.9193 71.1378C60.1465 71.5348 60.3948 71.9194 60.663 72.2899C63.3085 70.781 65.8169 69.0436 68.1596 67.0974Z" fill="white"/>
</g>
<path d="M21.9485 51.1745L18.924 73.0168L19.671 74.4676L72.708 49.7071L71.2438 29.319L69.9789 27.4697L22.9876 49.7569C22.7102 49.8882 22.4699 50.0866 22.2885 50.3341C22.107 50.5816 21.9902 50.8705 21.9485 51.1745Z" fill="#263238"/>
<path opacity="0.1" d="M18.924 73.0168L21.9551 51.1745C21.9968 50.8705 22.1137 50.5816 22.2951 50.3341C22.4766 50.0866 22.7169 49.8882 22.9943 49.7569L69.9789 27.4697L71.7651 47.9807L18.924 73.0168Z" fill="white"/>
<path d="M21.2678 62.4926C24.6343 63.3624 28.0473 62.549 31.095 61.0185C34.1428 59.488 37.0146 57.2835 39.561 54.9495C41.0055 53.6202 42.3692 52.2055 43.6446 50.7132C43.9766 50.3115 43.4056 49.7172 43.057 50.1256C40.8845 52.6836 38.4436 55.001 35.7762 57.0378C33.1568 59.0298 30.2617 60.8824 27.0347 61.6858C25.214 62.1457 23.3076 62.1457 21.487 61.6858C21.3821 61.6607 21.2717 61.6773 21.1789 61.7321C21.0861 61.787 21.0183 61.8758 20.9898 61.9798C20.9614 62.0837 20.9745 62.1947 21.0263 62.2891C21.0782 62.3836 21.1648 62.4542 21.2678 62.4859V62.4926Z" fill="#FF725E"/>
<path opacity="0.3" d="M69.9789 27.4697L71.2438 29.319L72.7079 49.7071L71.765 47.9807L69.9789 27.4697Z" fill="white"/>
<g opacity="0.3">
<path d="M72.7079 49.7073C72.7278 49.7505 60.9451 55.2916 46.3903 62.0876C31.8354 68.8836 20.0129 74.3716 19.9929 74.3152C19.973 74.2587 31.7557 68.7276 46.3172 61.9316C60.8787 55.1355 72.688 49.6608 72.7079 49.7073Z" fill="white"/>
</g>
<g opacity="0.3">
<path d="M45.3944 49.9893C44.4814 50.6533 43.9402 51.7024 43.4024 52.6951C40.2185 58.4918 36.7956 62.9871 31.5632 67.0308L38.0638 63.9665C40.0359 61.2474 44.3784 54.4912 45.3944 49.9893Z" fill="black"/>
</g>
<path d="M48.7076 47.6122C48.8106 47.6454 48.8039 48.1169 48.4819 48.7941C48.0387 49.681 47.3264 50.405 46.4468 50.8624C45.5672 51.3198 44.5654 51.4872 43.5849 51.3406C42.8445 51.2144 42.4528 50.9488 42.486 50.8459C42.5192 50.743 42.9574 50.7695 43.6181 50.7297C44.4636 50.6908 45.2916 50.4748 46.0483 50.0956C46.7934 49.6958 47.4452 49.1425 47.9606 48.4721C48.3723 47.9542 48.5848 47.5724 48.7076 47.6122Z" fill="#FF725E"/>
<path d="M48.472 47.6953C48.8206 48.4357 47.7748 49.664 46.1314 50.4409C44.488 51.2178 42.8778 51.2477 42.5259 50.5073C42.174 49.767 43.2231 48.5352 44.8665 47.7617C46.5099 46.9881 48.1134 46.9549 48.472 47.6953Z" fill="#263238"/>
<path d="M46.5264 46.208C45.773 46.092 45.0022 46.1946 44.3054 46.5035C43.5664 46.7744 42.963 47.3242 42.6247 48.0349C42.2865 48.7456 42.2402 49.5605 42.496 50.3049L48.472 47.6954C48.0427 46.9644 47.3444 46.4306 46.5264 46.208Z" fill="#263238"/>
<path d="M22.908 62.416C22.8561 62.7285 22.7129 63.0186 22.4963 63.2498C22.2797 63.4809 21.9995 63.6428 21.691 63.7149C21.3825 63.7869 21.0596 63.766 20.763 63.6548C20.4664 63.5436 20.2094 63.347 20.0244 63.0898C19.8394 62.8327 19.7347 62.5265 19.7235 62.2099C19.7124 61.8933 19.7952 61.5805 19.9616 61.311C20.128 61.0414 20.3705 60.8272 20.6586 60.6954C20.9466 60.5635 21.2672 60.5199 21.58 60.57C21.7887 60.6035 21.9886 60.6779 22.1685 60.7889C22.3483 60.8999 22.5044 61.0454 22.6278 61.2169C22.7512 61.3884 22.8395 61.5827 22.8876 61.7885C22.9357 61.9942 22.9426 62.2075 22.908 62.416Z" fill="#FF725E"/>
<path d="M22.9079 62.4161C22.9079 62.4161 22.9079 62.2734 22.9079 62.0244C22.866 61.6757 22.7109 61.3503 22.4664 61.0981C22.2703 60.8939 22.0213 60.7482 21.7472 60.6774C21.4731 60.6065 21.1847 60.6132 20.9142 60.6967C20.6437 60.7803 20.4017 60.9374 20.2153 61.1505C20.0289 61.3636 19.9055 61.6243 19.8587 61.9035C19.8119 62.1827 19.8436 62.4695 19.9504 62.7317C20.0571 62.9939 20.2346 63.2213 20.4631 63.3885C20.6916 63.5556 20.962 63.656 21.2443 63.6784C21.5265 63.7007 21.8094 63.6442 22.0613 63.5151C22.3744 63.3546 22.6271 63.0972 22.7818 62.7813C22.888 62.5556 22.9079 62.4128 22.9245 62.4161C22.9411 62.4195 22.9245 62.4527 22.9245 62.5191C22.9085 62.6179 22.8817 62.7148 22.8449 62.8079C22.7073 63.1561 22.4509 63.4442 22.1211 63.6213C21.876 63.7562 21.6008 63.8269 21.321 63.8269C21.0412 63.8269 20.766 63.7562 20.5209 63.6213C20.2177 63.4531 19.9742 63.195 19.8238 62.8827C19.6734 62.5703 19.6236 62.219 19.6811 61.8771C19.7386 61.5353 19.9007 61.2196 20.145 60.9737C20.3894 60.7277 20.7039 60.5636 21.0454 60.5038C21.3207 60.4552 21.6038 60.4769 21.8684 60.5668C22.1331 60.6568 22.3707 60.8121 22.5593 61.0184C22.8103 61.2917 22.9582 61.6439 22.9777 62.0144C22.9816 62.1144 22.975 62.2146 22.9577 62.3132C22.9245 62.3818 22.9079 62.4161 22.9079 62.4161Z" fill="#263238"/>
</svg>
